<?xml version="1.0" encoding="UTF-8"?>
<svg width="541px" height="300px" viewBox="0 0 541 300" version="1.1" xmlns="http://www.w3.org/2000/svg" xmlns:xlink="http://www.w3.org/1999/xlink">
    <!-- Generator: Sketch 50.2 (55047) - http://www.bohemiancoding.com/sketch -->
    <title>Product strategy 1a</title>
    <desc>Created with Sketch.</desc>
    <defs>
        <rect id="path-1" x="0" y="0" width="108" height="117"></rect>
        <linearGradient x1="55.8548574%" y1="-0.200400802%" x2="55.8548574%" y2="100%" id="linearGradient-3">
            <stop stop-color="#1454E4" stop-opacity="0.4" offset="6.25%"></stop>
            <stop stop-color="#F3F6FE" stop-opacity="0" offset="100%"></stop>
        </linearGradient>
    </defs>
    <g id="Page-1" stroke="none" stroke-width="1" fill="none" fill-rule="evenodd">
        <g id="Product-strategy-1a">
            <g id="Group">
                <rect id="Rectangle-path" fill="#FFFFFF" fill-rule="nonzero" x="0.5" y="0.5" width="540" height="299" rx="7.5"></rect>
                <path d="M33.386,50 L33.386,38.264 L37.418,38.264 C38.066,38.264 38.672,38.33 39.236,38.462 C39.8,38.582 40.292,38.792 40.712,39.092 C41.132,39.38 41.462,39.77 41.702,40.262 C41.954,40.742 42.08,41.336 42.08,42.044 C42.08,42.728 41.954,43.322 41.702,43.826 C41.462,44.33 41.132,44.744 40.712,45.068 C40.292,45.392 39.806,45.632 39.254,45.788 C38.702,45.944 38.114,46.022 37.49,46.022 L36.032,46.022 L36.032,50 L33.386,50 Z M36.032,43.916 L37.328,43.916 C38.768,43.916 39.488,43.292 39.488,42.044 C39.488,41.432 39.296,41 38.912,40.748 C38.528,40.496 37.976,40.37 37.256,40.37 L36.032,40.37 L36.032,43.916 Z M43.8927,50 L43.8927,41.072 L46.0527,41.072 L46.2327,42.638 L46.3047,42.638 C46.6287,42.026 47.0187,41.576 47.4747,41.288 C47.9307,41 48.3867,40.856 48.8427,40.856 C49.0947,40.856 49.2987,40.874 49.4547,40.91 C49.6227,40.934 49.7727,40.976 49.9047,41.036 L49.4727,43.322 C49.3047,43.274 49.1487,43.238 49.0047,43.214 C48.8607,43.19 48.6927,43.178 48.5007,43.178 C48.1647,43.178 47.8107,43.298 47.4387,43.538 C47.0787,43.778 46.7787,44.204 46.5387,44.816 L46.5387,50 L43.8927,50 Z M54.7228,50.216 C54.1588,50.216 53.6128,50.114 53.0848,49.91 C52.5568,49.694 52.0888,49.388 51.6808,48.992 C51.2848,48.596 50.9668,48.11 50.7268,47.534 C50.4868,46.946 50.3668,46.28 50.3668,45.536 C50.3668,44.792 50.4868,44.132 50.7268,43.556 C50.9668,42.968 51.2848,42.476 51.6808,42.08 C52.0888,41.684 52.5568,41.384 53.0848,41.18 C53.6128,40.964 54.1588,40.856 54.7228,40.856 C55.2868,40.856 55.8268,40.964 56.3428,41.18 C56.8708,41.384 57.3328,41.684 57.7288,42.08 C58.1368,42.476 58.4608,42.968 58.7008,43.556 C58.9408,44.132 59.0608,44.792 59.0608,45.536 C59.0608,46.28 58.9408,46.946 58.7008,47.534 C58.4608,48.11 58.1368,48.596 57.7288,48.992 C57.3328,49.388 56.8708,49.694 56.3428,49.91 C55.8268,50.114 55.2868,50.216 54.7228,50.216 Z M54.7228,48.074 C55.2628,48.074 55.6708,47.846 55.9468,47.39 C56.2228,46.934 56.3608,46.316 56.3608,45.536 C56.3608,44.756 56.2228,44.138 55.9468,43.682 C55.6708,43.226 55.2628,42.998 54.7228,42.998 C54.1708,42.998 53.7568,43.226 53.4808,43.682 C53.2168,44.138 53.0848,44.756 53.0848,45.536 C53.0848,46.316 53.2168,46.934 53.4808,47.39 C53.7568,47.846 54.1708,48.074 54.7228,48.074 Z M64.0591,50.216 C63.5071,50.216 63.0031,50.108 62.5471,49.892 C62.1031,49.676 61.7191,49.37 61.3951,48.974 C61.0831,48.566 60.8371,48.074 60.6571,47.498 C60.4891,46.922 60.4051,46.268 60.4051,45.536 C60.4051,44.804 60.5071,44.15 60.7111,43.574 C60.9271,42.998 61.2031,42.512 61.5391,42.116 C61.8871,41.708 62.2831,41.396 62.7271,41.18 C63.1831,40.964 63.6451,40.856 64.1131,40.856 C64.6171,40.856 65.0311,40.94 65.3551,41.108 C65.6791,41.276 65.9971,41.504 66.3091,41.792 L66.2011,40.424 L66.2011,37.382 L68.8471,37.382 L68.8471,50 L66.6871,50 L66.5071,49.118 L66.4351,49.118 C66.1231,49.43 65.7571,49.694 65.3371,49.91 C64.9171,50.114 64.4911,50.216 64.0591,50.216 Z M64.7431,48.056 C65.0311,48.056 65.2891,47.996 65.5171,47.876 C65.7571,47.756 65.9851,47.546 66.2011,47.246 L66.2011,43.592 C65.9611,43.376 65.7151,43.226 65.4631,43.142 C65.2111,43.058 64.9651,43.016 64.7251,43.016 C64.3051,43.016 63.9331,43.22 63.6091,43.628 C63.2851,44.024 63.1231,44.648 63.1231,45.5 C63.1231,46.388 63.2611,47.036 63.5371,47.444 C63.8251,47.852 64.2271,48.056 64.7431,48.056 Z M73.8735,50.216 C72.9015,50.216 72.1935,49.898 71.7495,49.262 C71.3175,48.626 71.1015,47.744 71.1015,46.616 L71.1015,41.072 L73.7475,41.072 L73.7475,46.274 C73.7475,46.922 73.8375,47.366 74.0175,47.606 C74.1975,47.846 74.4795,47.966 74.8635,47.966 C75.1995,47.966 75.4815,47.888 75.7095,47.732 C75.9375,47.576 76.1835,47.324 76.4475,46.976 L76.4475,41.072 L79.093,41.072 L79.093,50 L76.9335,50 L76.7355,48.758 L76.6815,48.758 C76.2975,49.214 75.8835,49.574 75.4395,49.838 C75.0075,50.09 74.4855,50.216 73.8735,50.216 Z M85.31,50.216 C84.686,50.216 84.104,50.114 83.564,49.91 C83.036,49.694 82.574,49.388 82.178,48.992 C81.782,48.596 81.47,48.11 81.242,47.534 C81.014,46.946 80.9,46.28 80.9,45.536 C80.9,44.792 81.026,44.132 81.278,43.556 C81.53,42.968 81.866,42.476 82.286,42.08 C82.718,41.684 83.216,41.384 83.78,41.18 C84.344,40.964 84.932,40.856 85.544,40.856 C86.096,40.856 86.582,40.946 87.002,41.126 C87.434,41.306 87.818,41.534 88.154,41.81 L86.912,43.52 C86.492,43.172 86.09,42.998 85.706,42.998 C85.058,42.998 84.548,43.226 84.176,43.682 C83.804,44.138 83.618,44.756 83.618,45.536 C83.618,46.316 83.804,46.934 84.176,47.39 C84.56,47.846 85.04,48.074 85.616,48.074 C85.904,48.074 86.18,48.014 86.444,47.894 C86.72,47.762 86.978,47.606 87.218,47.426 L88.262,49.154 C87.818,49.538 87.338,49.814 86.822,49.982 C86.306,50.138 85.802,50.216 85.31,50.216 Z M93.087,50.216 C92.535,50.216 92.061,50.132 91.665,49.964 C91.281,49.796 90.963,49.562 90.711,49.262 C90.471,48.962 90.291,48.602 90.171,48.182 C90.063,47.75 90.009,47.276 90.009,46.76 L90.009,43.142 L88.785,43.142 L88.785,41.18 L90.153,41.072 L90.459,38.696 L92.655,38.696 L92.655,41.072 L94.797,41.072 L94.797,43.142 L92.655,43.142 L92.655,46.724 C92.655,47.228 92.757,47.594 92.961,47.822 C93.177,48.038 93.459,48.146 93.807,48.146 C93.951,48.146 94.095,48.128 94.239,48.092 C94.395,48.056 94.533,48.014 94.653,47.966 L95.067,49.892 C94.827,49.964 94.545,50.036 94.221,50.108 C93.897,50.18 93.519,50.216 93.087,50.216 Z M102.771,50.216 C102.183,50.216 101.577,50.102 100.953,49.874 C100.341,49.646 99.807,49.346 99.351,48.974 L100.539,47.318 C100.947,47.63 101.337,47.864 101.709,48.02 C102.081,48.176 102.459,48.254 102.843,48.254 C103.239,48.254 103.527,48.188 103.707,48.056 C103.887,47.924 103.977,47.738 103.977,47.498 C103.977,47.354 103.923,47.228 103.815,47.12 C103.719,47 103.581,46.892 103.401,46.796 C103.233,46.7 103.041,46.616 102.825,46.544 C102.609,46.46 102.387,46.37 102.159,46.274 C101.883,46.166 101.607,46.04 101.331,45.896 C101.055,45.752 100.803,45.578 100.575,45.374 C100.347,45.158 100.161,44.912 100.017,44.636 C99.873,44.348 99.801,44.018 99.801,43.646 C99.801,43.238 99.879,42.86 100.035,42.512 C100.203,42.164 100.437,41.87 100.737,41.63 C101.037,41.39 101.397,41.204 101.817,41.072 C102.237,40.928 102.705,40.856 103.221,40.856 C103.905,40.856 104.505,40.976 105.021,41.216 C105.537,41.444 105.987,41.702 106.371,41.99 L105.183,43.574 C104.859,43.334 104.541,43.148 104.229,43.016 C103.917,42.884 103.605,42.818 103.293,42.818 C102.621,42.818 102.285,43.052 102.285,43.52 C102.285,43.664 102.333,43.79 102.429,43.898 C102.525,43.994 102.651,44.084 102.807,44.168 C102.975,44.252 103.161,44.336 103.365,44.42 C103.581,44.492 103.803,44.57 104.031,44.654 C104.319,44.762 104.601,44.888 104.877,45.032 C105.165,45.164 105.423,45.332 105.651,45.536 C105.891,45.74 106.083,45.992 106.227,46.292 C106.371,46.58 106.443,46.928 106.443,47.336 C106.443,47.744 106.365,48.122 106.209,48.47 C106.053,48.818 105.819,49.124 105.507,49.388 C105.195,49.64 104.811,49.844 104.355,50 C103.899,50.144 103.371,50.216 102.771,50.216 Z M111.21,50.216 C110.658,50.216 110.184,50.132 109.788,49.964 C109.404,49.796 109.086,49.562 108.834,49.262 C108.594,48.962 108.414,48.602 108.294,48.182 C108.186,47.75 108.132,47.276 108.132,46.76 L108.132,43.142 L106.908,43.142 L106.908,41.18 L108.276,41.072 L108.582,38.696 L110.778,38.696 L110.778,41.072 L112.92,41.072 L112.92,43.142 L110.778,43.142 L110.778,46.724 C110.778,47.228 110.88,47.594 111.084,47.822 C111.3,48.038 111.582,48.146 111.93,48.146 C112.074,48.146 112.218,48.128 112.362,48.092 C112.518,48.056 112.656,48.014 112.776,47.966 L113.19,49.892 C112.95,49.964 112.668,50.036 112.344,50.108 C112.02,50.18 111.642,50.216 111.21,50.216 Z M116.561,50.216 C116.153,50.216 115.781,50.144 115.445,50 C115.121,49.868 114.845,49.682 114.617,49.442 C114.389,49.19 114.209,48.902 114.077,48.578 C113.957,48.254 113.897,47.9 113.897,47.516 C113.897,46.58 114.293,45.848 115.085,45.32 C115.877,44.792 117.155,44.438 118.919,44.258 C118.895,43.862 118.775,43.55 118.559,43.322 C118.355,43.082 118.007,42.962 117.515,42.962 C117.131,42.962 116.747,43.034 116.363,43.178 C115.991,43.322 115.589,43.52 115.157,43.772 L114.203,42.026 C114.779,41.678 115.379,41.396 116.003,41.18 C116.639,40.964 117.311,40.856 118.019,40.856 C119.171,40.856 120.047,41.186 120.647,41.846 C121.259,42.494 121.565,43.508 121.565,44.888 L121.565,50 L119.405,50 L119.225,49.082 L119.153,49.082 C118.769,49.418 118.367,49.694 117.947,49.91 C117.527,50.114 117.065,50.216 116.561,50.216 Z M117.461,48.164 C117.761,48.164 118.019,48.098 118.235,47.966 C118.451,47.834 118.679,47.648 118.919,47.408 L118.919,45.842 C117.983,45.974 117.335,46.166 116.975,46.418 C116.615,46.67 116.435,46.97 116.435,47.318 C116.435,47.606 116.525,47.822 116.705,47.966 C116.897,48.098 117.149,48.164 117.461,48.164 Z M126.989,53.798 C126.461,53.798 125.969,53.75 125.513,53.654 C125.069,53.57 124.673,53.438 124.325,53.258 C123.989,53.078 123.725,52.844 123.533,52.556 C123.341,52.268 123.245,51.926 123.245,51.53 C123.245,50.81 123.671,50.21 124.523,49.73 L124.523,49.658 C124.283,49.502 124.085,49.304 123.929,49.064 C123.773,48.824 123.695,48.518 123.695,48.146 C123.695,47.822 123.791,47.516 123.983,47.228 C124.175,46.928 124.415,46.676 124.703,46.472 L124.703,46.4 C124.391,46.184 124.109,45.878 123.857,45.482 C123.617,45.074 123.497,44.606 123.497,44.078 C123.497,43.538 123.599,43.07 123.803,42.674 C124.007,42.266 124.277,41.93 124.613,41.666 C124.961,41.39 125.357,41.186 125.801,41.054 C126.245,40.922 126.707,40.856 127.187,40.856 C127.715,40.856 128.177,40.928 128.573,41.072 L131.831,41.072 L131.831,42.998 L130.409,42.998 C130.493,43.13 130.559,43.298 130.607,43.502 C130.667,43.706 130.697,43.928 130.697,44.168 C130.697,44.684 130.607,45.134 130.427,45.518 C130.247,45.89 129.995,46.202 129.671,46.454 C129.359,46.694 128.987,46.874 128.555,46.994 C128.135,47.114 127.679,47.174 127.187,47.174 C126.839,47.174 126.479,47.114 126.107,46.994 C125.987,47.09 125.903,47.186 125.855,47.282 C125.807,47.378 125.783,47.504 125.783,47.66 C125.783,47.888 125.879,48.056 126.071,48.164 C126.275,48.272 126.629,48.326 127.133,48.326 L128.573,48.326 C129.677,48.326 130.517,48.506 131.093,48.866 C131.681,49.214 131.975,49.79 131.975,50.594 C131.975,51.062 131.855,51.488 131.615,51.872 C131.387,52.268 131.057,52.604 130.625,52.88 C130.193,53.168 129.671,53.39 129.059,53.546 C128.447,53.714 127.757,53.798 126.989,53.798 Z M127.187,45.572 C127.535,45.572 127.823,45.452 128.051,45.212 C128.291,44.96 128.411,44.582 128.411,44.078 C128.411,43.61 128.291,43.256 128.051,43.016 C127.823,42.764 127.535,42.638 127.187,42.638 C126.839,42.638 126.545,42.758 126.305,42.998 C126.077,43.238 125.963,43.598 125.963,44.078 C125.963,44.582 126.077,44.96 126.305,45.212 C126.545,45.452 126.839,45.572 127.187,45.572 Z M127.403,52.142 C128.003,52.142 128.495,52.034 128.879,51.818 C129.263,51.614 129.455,51.356 129.455,51.044 C129.455,50.768 129.335,50.582 129.095,50.486 C128.867,50.39 128.531,50.342 128.087,50.342 L127.169,50.342 C126.857,50.342 126.605,50.33 126.413,50.306 C126.221,50.294 126.053,50.27 125.909,50.234 C125.585,50.522 125.423,50.816 125.423,51.116 C125.423,51.452 125.603,51.704 125.963,51.872 C126.323,52.052 126.803,52.142 127.403,52.142 Z M137.098,50.216 C136.462,50.216 135.868,50.114 135.316,49.91 C134.764,49.694 134.284,49.388 133.876,48.992 C133.468,48.584 133.15,48.092 132.922,47.516 C132.694,46.94 132.58,46.28 132.58,45.536 C132.58,44.816 132.7,44.168 132.94,43.592 C133.18,43.004 133.492,42.512 133.876,42.116 C134.272,41.708 134.722,41.396 135.226,41.18 C135.73,40.964 136.252,40.856 136.792,40.856 C137.428,40.856 137.98,40.964 138.448,41.18 C138.928,41.396 139.324,41.696 139.636,42.08 C139.96,42.464 140.2,42.92 140.356,43.448 C140.512,43.964 140.59,44.528 140.59,45.14 C140.59,45.38 140.578,45.608 140.554,45.824 C140.53,46.04 140.506,46.202 140.482,46.31 L135.136,46.31 C135.256,46.958 135.52,47.438 135.928,47.75 C136.348,48.05 136.858,48.2 137.458,48.2 C138.094,48.2 138.736,48.002 139.384,47.606 L140.266,49.208 C139.81,49.52 139.3,49.766 138.736,49.946 C138.184,50.126 137.638,50.216 137.098,50.216 Z M135.118,44.564 L138.34,44.564 C138.34,44.06 138.226,43.652 137.998,43.34 C137.77,43.028 137.386,42.872 136.846,42.872 C136.426,42.872 136.054,43.01 135.73,43.286 C135.418,43.562 135.214,43.988 135.118,44.564 Z" id="Shape" fill="#161537" fill-rule="nonzero"></path>
                <path d="M33.8711,133.5 L483.028,133.5" id="Shape" stroke="#E4E9F0"></path>
                <g id="Shape" transform="translate(65.000000, 90.000000)">
                    <path d="M7.2582,10.75 L7.2582,0.91 L8.7582,0.91 L10.6482,6.16 C10.7682,6.5 10.8832,6.845 10.9932,7.195 C11.1132,7.535 11.2332,7.875 11.3532,8.215 L11.4132,8.215 C11.5332,7.875 11.6432,7.535 11.7432,7.195 C11.8532,6.845 11.9682,6.5 12.0882,6.16 L13.9482,0.91 L15.463,0.91 L15.463,10.75 L14.293,10.75 L14.293,5.335 C14.293,4.895 14.313,4.41 14.353,3.88 C14.393,3.35 14.428,2.865 14.458,2.425 L14.398,2.425 L13.6182,4.66 L11.7582,9.76 L10.9332,9.76 L9.0732,4.66 L8.2932,2.425 L8.2332,2.425 C8.2632,2.865 8.2932,3.35 8.3232,3.88 C8.3632,4.41 8.3832,4.895 8.3832,5.335 L8.3832,10.75 L7.2582,10.75 Z M19.717,10.93 C19.107,10.93 18.597,10.75 18.187,10.39 C17.787,10.03 17.587,9.52 17.587,8.86 C17.587,8.06 17.942,7.45 18.652,7.03 C19.362,6.6 20.497,6.3 22.057,6.13 C22.057,5.9 22.032,5.675 21.982,5.455 C21.942,5.235 21.867,5.04 21.757,4.87 C21.647,4.7 21.492,4.565 21.292,4.465 C21.102,4.355 20.857,4.3 20.557,4.3 C20.137,4.3 19.742,4.38 19.372,4.54 C19.002,4.7 18.672,4.88 18.382,5.08 L17.902,4.225 C18.242,4.005 18.657,3.795 19.147,3.595 C19.637,3.385 20.177,3.28 20.767,3.28 C21.657,3.28 22.302,3.555 22.702,4.105 C23.102,4.645 23.302,5.37 23.302,6.28 L23.302,10.75 L22.282,10.75 L22.177,9.88 L22.132,9.88 C21.782,10.17 21.407,10.42 21.007,10.63 C20.607,10.83 20.177,10.93 19.717,10.93 Z M20.077,9.94 C20.427,9.94 20.757,9.86 21.067,9.7 C21.377,9.53 21.707,9.285 22.057,8.965 L22.057,6.94 C21.447,7.02 20.932,7.115 20.512,7.225 C20.102,7.335 19.767,7.465 19.507,7.615 C19.257,7.765 19.072,7.94 18.952,8.14 C18.842,8.33 18.787,8.54 18.787,8.77 C18.787,9.19 18.912,9.49 19.162,9.67 C19.412,9.85 19.717,9.94 20.077,9.94 Z M25.595,10.75 L25.595,3.46 L26.615,3.46 L26.72,4.78 L26.765,4.78 C27.015,4.32 27.315,3.955 27.665,3.685 C28.025,3.415 28.415,3.28 28.835,3.28 C29.125,3.28 29.385,3.33 29.615,3.43 L29.375,4.51 C29.255,4.47 29.145,4.44 29.045,4.42 C28.945,4.4 28.82,4.39 28.67,4.39 C28.36,4.39 28.035,4.515 27.695,4.765 C27.365,5.015 27.075,5.45 26.825,6.07 L26.825,10.75 L25.595,10.75 Z M30.795,10.75 L30.795,0.07 L32.01,0.07 L32.01,7.3 L32.055,7.3 L35.16,3.46 L36.525,3.46 L34.08,6.385 L36.855,10.75 L35.505,10.75 L33.375,7.24 L32.01,8.83 L32.01,10.75 L30.795,10.75 Z M40.914,10.93 C40.424,10.93 39.964,10.845 39.534,10.675 C39.114,10.495 38.744,10.245 38.424,9.925 C38.114,9.595 37.869,9.195 37.689,8.725 C37.509,8.255 37.419,7.72 37.419,7.12 C37.419,6.52 37.509,5.985 37.689,5.515 C37.879,5.035 38.124,4.63 38.424,4.3 C38.734,3.97 39.084,3.72 39.474,3.55 C39.864,3.37 40.269,3.28 40.689,3.28 C41.149,3.28 41.559,3.36 41.919,3.52 C42.289,3.68 42.594,3.91 42.834,4.21 C43.084,4.51 43.274,4.87 43.404,5.29 C43.534,5.71 43.599,6.18 43.599,6.7 C43.599,6.83 43.594,6.96 43.584,7.09 C43.584,7.21 43.574,7.315 43.554,7.405 L38.634,7.405 C38.684,8.185 38.924,8.805 39.354,9.265 C39.794,9.715 40.364,9.94 41.064,9.94 C41.414,9.94 41.734,9.89 42.024,9.79 C42.324,9.68 42.609,9.54 42.879,9.37 L43.314,10.18 C42.994,10.38 42.639,10.555 42.249,10.705 C41.859,10.855 41.414,10.93 40.914,10.93 Z M38.619,6.52 L42.519,6.52 C42.519,5.78 42.359,5.22 42.039,4.84 C41.729,4.45 41.289,4.255 40.719,4.255 C40.459,4.255 40.209,4.305 39.969,4.405 C39.739,4.505 39.529,4.655 39.339,4.855 C39.149,5.045 38.989,5.28 38.859,5.56 C38.739,5.84 38.659,6.16 38.619,6.52 Z M47.548,10.93 C47.158,10.93 46.828,10.87 46.558,10.75 C46.298,10.63 46.083,10.465 45.913,10.255 C45.753,10.045 45.638,9.79 45.568,9.49 C45.498,9.19 45.463,8.86 45.463,8.5 L45.463,4.465 L44.383,4.465 L44.383,3.535 L45.523,3.46 L45.673,1.42 L46.708,1.42 L46.708,3.46 L48.673,3.46 L48.673,4.465 L46.708,4.465 L46.708,8.515 C46.708,8.965 46.788,9.315 46.948,9.565 C47.118,9.805 47.413,9.925 47.833,9.925 C47.963,9.925 48.103,9.905 48.253,9.865 C48.403,9.825 48.538,9.78 48.658,9.73 L48.898,10.66 C48.698,10.73 48.478,10.79 48.238,10.84 C48.008,10.9 47.778,10.93 47.548,10.93 Z M0.3661,29.75 L0.3661,19.91 L3.4411,19.91 C3.9411,19.91 4.4011,19.96 4.8211,20.06 C5.2511,20.15 5.6161,20.305 5.9161,20.525 C6.2261,20.745 6.4661,21.03 6.6361,21.38 C6.8061,21.73 6.8911,22.16 6.8911,22.67 C6.8911,23.44 6.6911,24.055 6.2911,24.515 C5.8911,24.975 5.3511,25.29 4.6711,25.46 L7.1761,29.75 L5.7661,29.75 L3.3961,25.595 L1.6111,25.595 L1.6111,29.75 L0.3661,29.75 Z M1.6111,24.575 L3.2611,24.575 C4.0311,24.575 4.6211,24.42 5.0311,24.11 C5.4411,23.79 5.6461,23.31 5.6461,22.67 C5.6461,22.02 5.4411,21.565 5.0311,21.305 C4.6211,21.045 4.0311,20.915 3.2611,20.915 L1.6111,20.915 L1.6111,24.575 Z M11.5947,29.93 C11.1047,29.93 10.6447,29.845 10.2147,29.675 C9.7947,29.495 9.4247,29.245 9.1047,28.925 C8.7947,28.595 8.5497,28.195 8.3697,27.725 C8.1897,27.255 8.0997,26.72 8.0997,26.12 C8.0997,25.52 8.1897,24.985 8.3697,24.515 C8.5597,24.035 8.8047,23.63 9.1047,23.3 C9.4147,22.97 9.7647,22.72 10.1547,22.55 C10.5447,22.37 10.9497,22.28 11.3697,22.28 C11.8297,22.28 12.2397,22.36 12.5997,22.52 C12.9697,22.68 13.2747,22.91 13.5147,23.21 C13.7647,23.51 13.9547,23.87 14.085,24.29 C14.215,24.71 14.28,25.18 14.28,25.7 C14.28,25.83 14.275,25.96 14.265,26.09 C14.265,26.21 14.255,26.315 14.235,26.405 L9.3147,26.405 C9.3647,27.185 9.6047,27.805 10.0347,28.265 C10.4747,28.715 11.0447,28.94 11.7447,28.94 C12.0947,28.94 12.4147,28.89 12.7047,28.79 C13.0047,28.68 13.2897,28.54 13.5597,28.37 L13.9947,29.18 C13.6747,29.38 13.3197,29.555 12.9297,29.705 C12.5397,29.855 12.0947,29.93 11.5947,29.93 Z M9.2997,25.52 L13.1997,25.52 C13.1997,24.78 13.0397,24.22 12.7197,23.84 C12.4097,23.45 11.9697,23.255 11.3997,23.255 C11.1397,23.255 10.8897,23.305 10.6497,23.405 C10.4197,23.505 10.2097,23.655 10.0197,23.855 C9.8297,24.045 9.6697,24.28 9.5397,24.56 C9.4197,24.84 9.3397,25.16 9.2997,25.52 Z M17.986,29.93 C17.466,29.93 16.971,29.835 16.501,29.645 C16.031,29.455 15.621,29.215 15.271,28.925 L15.886,28.1 C16.206,28.36 16.531,28.57 16.861,28.73 C17.201,28.89 17.591,28.97 18.031,28.97 C18.511,28.97 18.871,28.86 19.111,28.64 C19.351,28.42 19.471,28.15 19.471,27.83 C19.471,27.64 19.421,27.475 19.321,27.335 C19.221,27.195 19.091,27.075 18.931,26.975 C18.781,26.865 18.606,26.77 18.406,26.69 C18.206,26.61 18.006,26.53 17.806,26.45 C17.546,26.36 17.286,26.26 17.026,26.15 C16.766,26.03 16.531,25.89 16.321,25.73 C16.121,25.56 15.956,25.365 15.826,25.145 C15.696,24.925 15.631,24.66 15.631,24.35 C15.631,24.06 15.686,23.79 15.796,23.54 C15.916,23.28 16.081,23.06 16.291,22.88 C16.511,22.69 16.776,22.545 17.086,22.445 C17.396,22.335 17.746,22.28 18.136,22.28 C18.596,22.28 19.016,22.36 19.396,22.52 C19.786,22.68 20.121,22.875 20.401,23.105 L19.816,23.885 C19.566,23.695 19.306,23.54 19.036,23.42 C18.766,23.3 18.471,23.24 18.151,23.24 C17.691,23.24 17.351,23.345 17.131,23.555 C16.921,23.765 16.816,24.01 16.816,24.29 C16.816,24.46 16.861,24.61 16.951,24.74 C17.041,24.86 17.161,24.97 17.311,25.07 C17.461,25.16 17.631,25.245 17.821,25.325 C18.021,25.395 18.226,25.47 18.436,25.55 C18.696,25.65 18.956,25.755 19.216,25.865 C19.486,25.975 19.726,26.115 19.936,26.285 C20.146,26.445 20.316,26.645 20.446,26.885 C20.586,27.125 20.656,27.415 20.656,27.755 C20.656,28.055 20.596,28.335 20.476,28.595 C20.366,28.855 20.196,29.085 19.966,29.285 C19.746,29.485 19.466,29.64 19.126,29.75 C18.796,29.87 18.416,29.93 17.986,29.93 Z M25.32,29.93 C24.83,29.93 24.37,29.845 23.94,29.675 C23.52,29.495 23.15,29.245 22.83,28.925 C22.52,28.595 22.275,28.195 22.095,27.725 C21.915,27.255 21.825,26.72 21.825,26.12 C21.825,25.52 21.915,24.985 22.095,24.515 C22.285,24.035 22.53,23.63 22.83,23.3 C23.14,22.97 23.49,22.72 23.88,22.55 C24.27,22.37 24.675,22.28 25.095,22.28 C25.555,22.28 25.965,22.36 26.325,22.52 C26.695,22.68 27,22.91 27.24,23.21 C27.49,23.51 27.68,23.87 27.81,24.29 C27.94,24.71 28.005,25.18 28.005,25.7 C28.005,25.83 28,25.96 27.99,26.09 C27.99,26.21 27.98,26.315 27.96,26.405 L23.04,26.405 C23.09,27.185 23.33,27.805 23.76,28.265 C24.2,28.715 24.77,28.94 25.47,28.94 C25.82,28.94 26.14,28.89 26.43,28.79 C26.73,28.68 27.015,28.54 27.285,28.37 L27.72,29.18 C27.4,29.38 27.045,29.555 26.655,29.705 C26.265,29.855 25.82,29.93 25.32,29.93 Z M23.025,25.52 L26.925,25.52 C26.925,24.78 26.765,24.22 26.445,23.84 C26.135,23.45 25.695,23.255 25.125,23.255 C24.865,23.255 24.615,23.305 24.375,23.405 C24.145,23.505 23.935,23.655 23.745,23.855 C23.555,24.045 23.395,24.28 23.265,24.56 C23.145,24.84 23.065,25.16 23.025,25.52 Z M31.282,29.93 C30.672,29.93 30.162,29.75 29.752,29.39 C29.352,29.03 29.152,28.52 29.152,27.86 C29.152,27.06 29.507,26.45 30.217,26.03 C30.927,25.6 32.062,25.3 33.622,25.13 C33.622,24.9 33.597,24.675 33.547,24.455 C33.507,24.235 33.432,24.04 33.322,23.87 C33.212,23.7 33.057,23.565 32.857,23.465 C32.667,23.355 32.422,23.3 32.122,23.3 C31.702,23.3 31.307,23.38 30.937,23.54 C30.567,23.7 30.237,23.88 29.947,24.08 L29.467,23.225 C29.807,23.005 30.222,22.795 30.712,22.595 C31.202,22.385 31.742,22.28 32.332,22.28 C33.222,22.28 33.867,22.555 34.267,23.105 C34.667,23.645 34.867,24.37 34.867,25.28 L34.867,29.75 L33.847,29.75 L33.742,28.88 L33.697,28.88 C33.347,29.17 32.972,29.42 32.572,29.63 C32.172,29.83 31.742,29.93 31.282,29.93 Z M31.642,28.94 C31.992,28.94 32.322,28.86 32.632,28.7 C32.942,28.53 33.272,28.285 33.622,27.965 L33.622,25.94 C33.012,26.02 32.497,26.115 32.077,26.225 C31.667,26.335 31.332,26.465 31.072,26.615 C30.822,26.765 30.637,26.94 30.517,27.14 C30.407,27.33 30.352,27.54 30.352,27.77 C30.352,28.19 30.477,28.49 30.727,28.67 C30.977,28.85 31.282,28.94 31.642,28.94 Z M37.16,29.75 L37.16,22.46 L38.18,22.46 L38.285,23.78 L38.33,23.78 C38.58,23.32 38.88,22.955 39.23,22.685 C39.59,22.415 39.98,22.28 40.4,22.28 C40.69,22.28 40.95,22.33 41.18,22.43 L40.94,23.51 C40.82,23.47 40.71,23.44 40.61,23.42 C40.51,23.4 40.385,23.39 40.235,23.39 C39.925,23.39 39.6,23.515 39.26,23.765 C38.93,24.015 38.64,24.45 38.39,25.07 L38.39,29.75 L37.16,29.75 Z M45.094,29.93 C44.614,29.93 44.164,29.845 43.744,29.675 C43.324,29.505 42.959,29.26 42.649,28.94 C42.349,28.61 42.109,28.21 41.929,27.74 C41.759,27.26 41.674,26.72 41.674,26.12 C41.674,25.51 41.769,24.97 41.959,24.5 C42.149,24.02 42.404,23.615 42.724,23.285 C43.044,22.955 43.414,22.705 43.834,22.535 C44.264,22.365 44.714,22.28 45.184,22.28 C45.664,22.28 46.074,22.365 46.414,22.535 C46.754,22.705 47.054,22.905 47.314,23.135 L46.684,23.945 C46.474,23.755 46.249,23.6 46.009,23.48 C45.779,23.36 45.519,23.3 45.229,23.3 C44.899,23.3 44.594,23.37 44.314,23.51 C44.034,23.64 43.794,23.83 43.594,24.08 C43.394,24.33 43.234,24.63 43.114,24.98 C43.004,25.32 42.949,25.7 42.949,26.12 C42.949,26.54 43.004,26.92 43.114,27.26 C43.224,27.6 43.374,27.895 43.564,28.145 C43.764,28.385 44.004,28.575 44.284,28.715 C44.564,28.845 44.869,28.91 45.199,28.91 C45.539,28.91 45.849,28.84 46.129,28.7 C46.419,28.55 46.679,28.375 46.909,28.175 L47.449,29 C47.119,29.29 46.754,29.52 46.354,29.69 C45.954,29.85 45.534,29.93 45.094,29.93 Z M49.055,29.75 L49.055,19.07 L50.285,19.07 L50.285,21.98 L50.24,23.48 C50.59,23.15 50.955,22.87 51.335,22.64 C51.715,22.4 52.16,22.28 52.67,22.28 C53.44,22.28 54,22.52 54.35,23 C54.71,23.48 54.89,24.19 54.89,25.13 L54.89,29.75 L53.66,29.75 L53.66,25.295 C53.66,24.605 53.55,24.11 53.33,23.81 C53.11,23.5 52.76,23.345 52.28,23.345 C51.9,23.345 51.565,23.44 51.275,23.63 C50.985,23.82 50.655,24.1 50.285,24.47 L50.285,29.75 L49.055,29.75 Z" fill="#786FA4" fill-rule="nonzero"></path>
                    <path d="M119.238,10.75 L119.238,0.91 L122.043,0.91 C122.593,0.91 123.093,0.96 123.543,1.06 C124.003,1.16 124.393,1.325 124.713,1.555 C125.033,1.775 125.283,2.07 125.463,2.44 C125.643,2.81 125.733,3.265 125.733,3.805 C125.733,4.325 125.643,4.775 125.463,5.155 C125.293,5.535 125.048,5.85 124.728,6.1 C124.408,6.35 124.023,6.54 123.573,6.67 C123.133,6.79 122.643,6.85 122.103,6.85 L120.483,6.85 L120.483,10.75 L119.238,10.75 Z M120.483,5.83 L121.953,5.83 C122.813,5.83 123.448,5.67 123.858,5.35 C124.278,5.02 124.488,4.505 124.488,3.805 C124.488,3.095 124.268,2.605 123.828,2.335 C123.398,2.055 122.753,1.915 121.893,1.915 L120.483,1.915 L120.483,5.83 Z M128.919,10.93 C128.449,10.93 128.114,10.79 127.914,10.51 C127.714,10.23 127.614,9.82 127.614,9.28 L127.614,0.07 L128.844,0.07 L128.844,9.37 C128.844,9.57 128.879,9.71 128.949,9.79 C129.019,9.87 129.099,9.91 129.189,9.91 C129.229,9.91 129.264,9.91 129.294,9.91 C129.334,9.91 129.389,9.9 129.459,9.88 L129.624,10.81 C129.544,10.85 129.449,10.88 129.339,10.9 C129.229,10.92 129.089,10.93 128.919,10.93 Z M133.117,10.93 C132.507,10.93 131.997,10.75 131.587,10.39 C131.187,10.03 130.987,9.52 130.987,8.86 C130.987,8.06 131.342,7.45 132.052,7.03 C132.762,6.6 133.897,6.3 135.457,6.13 C135.457,5.9 135.432,5.675 135.382,5.455 C135.342,5.235 135.267,5.04 135.157,4.87 C135.047,4.7 134.892,4.565 134.692,4.465 C134.502,4.355 134.257,4.3 133.957,4.3 C133.537,4.3 133.142,4.38 132.772,4.54 C132.402,4.7 132.072,4.88 131.782,5.08 L131.302,4.225 C131.642,4.005 132.057,3.795 132.547,3.595 C133.037,3.385 133.577,3.28 134.167,3.28 C135.057,3.28 135.702,3.555 136.102,4.105 C136.502,4.645 136.702,5.37 136.702,6.28 L136.702,10.75 L135.682,10.75 L135.577,9.88 L135.532,9.88 C135.182,10.17 134.807,10.42 134.407,10.63 C134.007,10.83 133.577,10.93 133.117,10.93 Z M133.477,9.94 C133.827,9.94 134.157,9.86 134.467,9.7 C134.777,9.53 135.107,9.285 135.457,8.965 L135.457,6.94 C134.847,7.02 134.332,7.115 133.912,7.225 C133.502,7.335 133.167,7.465 132.907,7.615 C132.657,7.765 132.472,7.94 132.352,8.14 C132.242,8.33 132.187,8.54 132.187,8.77 C132.187,9.19 132.312,9.49 132.562,9.67 C132.812,9.85 133.117,9.94 133.477,9.94 Z M138.996,10.75 L138.996,3.46 L140.016,3.46 L140.121,4.51 L140.166,4.51 C140.516,4.16 140.881,3.87 141.261,3.64 C141.651,3.4 142.101,3.28 142.611,3.28 C143.381,3.28 143.941,3.52 144.291,4 C144.651,4.48 144.831,5.19 144.831,6.13 L144.831,10.75 L143.601,10.75 L143.601,6.295 C143.601,5.605 143.491,5.11 143.271,4.81 C143.051,4.5 142.701,4.345 142.221,4.345 C141.841,4.345 141.506,4.44 141.216,4.63 C140.926,4.82 140.596,5.1 140.226,5.47 L140.226,10.75 L138.996,10.75 Z M152.452,10.93 C152.002,10.93 151.592,10.865 151.222,10.735 C150.862,10.595 150.547,10.405 150.277,10.165 C150.017,9.925 149.812,9.64 149.662,9.31 C149.522,8.97 149.452,8.6 149.452,8.2 C149.452,7.87 149.502,7.57 149.602,7.3 C149.712,7.03 149.857,6.78 150.037,6.55 C150.217,6.32 150.422,6.11 150.652,5.92 C150.892,5.72 151.137,5.535 151.387,5.365 C151.187,4.955 151.027,4.56 150.907,4.18 C150.797,3.79 150.742,3.415 150.742,3.055 C150.742,2.725 150.797,2.42 150.907,2.14 C151.017,1.86 151.172,1.615 151.372,1.405 C151.572,1.195 151.812,1.03 152.092,0.91 C152.372,0.79 152.682,0.73 153.022,0.73 C153.632,0.73 154.107,0.91 154.447,1.27 C154.787,1.63 154.957,2.1 154.957,2.68 C154.957,3 154.892,3.295 154.762,3.565 C154.632,3.835 154.462,4.09 154.252,4.33 C154.042,4.56 153.802,4.78 153.532,4.99 C153.272,5.19 153.007,5.39 152.737,5.59 C153.057,6.1 153.432,6.59 153.862,7.06 C154.302,7.53 154.757,7.96 155.227,8.35 C155.527,7.94 155.792,7.495 156.022,7.015 C156.262,6.535 156.457,6.01 156.607,5.44 L157.762,5.44 C157.562,6.09 157.322,6.71 157.042,7.3 C156.762,7.89 156.427,8.445 156.037,8.965 C156.377,9.195 156.702,9.39 157.012,9.55 C157.322,9.71 157.612,9.83 157.882,9.91 L157.552,10.93 C157.202,10.83 156.837,10.69 156.457,10.51 C156.077,10.32 155.687,10.085 155.287,9.805 C154.907,10.145 154.482,10.42 154.012,10.63 C153.552,10.83 153.032,10.93 152.452,10.93 Z M151.807,3.04 C151.807,3.31 151.847,3.59 151.927,3.88 C152.017,4.17 152.132,4.465 152.272,4.765 C152.492,4.615 152.702,4.465 152.902,4.315 C153.112,4.155 153.292,3.995 153.442,3.835 C153.602,3.665 153.727,3.49 153.817,3.31 C153.907,3.12 153.952,2.915 153.952,2.695 C153.952,2.405 153.877,2.155 153.727,1.945 C153.587,1.725 153.352,1.615 153.022,1.615 C152.652,1.615 152.357,1.75 152.137,2.02 C151.917,2.29 151.807,2.63 151.807,3.04 Z M152.587,9.94 C152.927,9.94 153.252,9.87 153.562,9.73 C153.872,9.59 154.172,9.395 154.462,9.145 C153.982,8.725 153.517,8.27 153.067,7.78 C152.627,7.28 152.232,6.76 151.882,6.22 C151.532,6.5 151.237,6.795 150.997,7.105 C150.767,7.405 150.652,7.745 150.652,8.125 C150.652,8.395 150.702,8.645 150.802,8.875 C150.902,9.095 151.037,9.285 151.207,9.445 C151.387,9.605 151.592,9.73 151.822,9.82 C152.062,9.9 152.317,9.94 152.587,9.94 Z M113.649,29.75 L113.649,19.91 L116.109,19.91 C117.629,19.91 118.784,20.33 119.574,21.17 C120.364,22.01 120.759,23.215 120.759,24.785 C120.759,25.565 120.659,26.265 120.459,26.885 C120.259,27.495 119.964,28.015 119.574,28.445 C119.184,28.865 118.704,29.19 118.134,29.42 C117.564,29.64 116.909,29.75 116.169,29.75 L113.649,29.75 Z M114.894,28.73 L116.019,28.73 C117.169,28.73 118.029,28.385 118.599,27.695 C119.179,27.005 119.469,26.035 119.469,24.785 C119.469,23.535 119.179,22.58 118.599,21.92 C118.029,21.26 117.169,20.93 116.019,20.93 L114.894,20.93 L114.894,28.73 Z M125.713,29.93 C125.223,29.93 124.763,29.845 124.333,29.675 C123.913,29.495 123.543,29.245 123.223,28.925 C122.913,28.595 122.668,28.195 122.488,27.725 C122.308,27.255 122.218,26.72 122.218,26.12 C122.218,25.52 122.308,24.985 122.488,24.515 C122.678,24.035 122.923,23.63 123.223,23.3 C123.533,22.97 123.883,22.72 124.273,22.55 C124.663,22.37 125.068,22.28 125.488,22.28 C125.948,22.28 126.358,22.36 126.718,22.52 C127.088,22.68 127.393,22.91 127.633,23.21 C127.883,23.51 128.073,23.87 128.203,24.29 C128.333,24.71 128.398,25.18 128.398,25.7 C128.398,25.83 128.393,25.96 128.383,26.09 C128.383,26.21 128.373,26.315 128.353,26.405 L123.433,26.405 C123.483,27.185 123.723,27.805 124.153,28.265 C124.593,28.715 125.163,28.94 125.863,28.94 C126.213,28.94 126.533,28.89 126.823,28.79 C127.123,28.68 127.408,28.54 127.678,28.37 L128.113,29.18 C127.793,29.38 127.438,29.555 127.048,29.705 C126.658,29.855 126.213,29.93 125.713,29.93 Z M123.418,25.52 L127.318,25.52 C127.318,24.78 127.158,24.22 126.838,23.84 C126.528,23.45 126.088,23.255 125.518,23.255 C125.258,23.255 125.008,23.305 124.768,23.405 C124.538,23.505 124.328,23.655 124.138,23.855 C123.948,24.045 123.788,24.28 123.658,24.56 C123.538,24.84 123.458,25.16 123.418,25.52 Z M131.847,29.75 L129.222,22.46 L130.497,22.46 L131.877,26.6 C131.987,26.96 132.097,27.32 132.207,27.68 C132.327,28.04 132.442,28.395 132.552,28.745 L132.612,28.745 C132.722,28.395 132.832,28.04 132.942,27.68 C133.052,27.32 133.162,26.96 133.272,26.6 L134.652,22.46 L135.867,22.46 L133.287,29.75 L131.847,29.75 Z M140.171,29.93 C139.681,29.93 139.221,29.845 138.791,29.675 C138.371,29.495 138.001,29.245 137.681,28.925 C137.371,28.595 137.126,28.195 136.946,27.725 C136.766,27.255 136.676,26.72 136.676,26.12 C136.676,25.52 136.766,24.985 136.946,24.515 C137.136,24.035 137.381,23.63 137.681,23.3 C137.991,22.97 138.341,22.72 138.731,22.55 C139.121,22.37 139.526,22.28 139.946,22.28 C140.406,22.28 140.816,22.36 141.176,22.52 C141.546,22.68 141.851,22.91 142.091,23.21 C142.341,23.51 142.531,23.87 142.661,24.29 C142.791,24.71 142.856,25.18 142.856,25.7 C142.856,25.83 142.851,25.96 142.841,26.09 C142.841,26.21 142.831,26.315 142.811,26.405 L137.891,26.405 C137.941,27.185 138.181,27.805 138.611,28.265 C139.051,28.715 139.621,28.94 140.321,28.94 C140.671,28.94 140.991,28.89 141.281,28.79 C141.581,28.68 141.866,28.54 142.136,28.37 L142.571,29.18 C142.251,29.38 141.896,29.555 141.506,29.705 C141.116,29.855 140.671,29.93 140.171,29.93 Z M137.876,25.52 L141.776,25.52 C141.776,24.78 141.616,24.22 141.296,23.84 C140.986,23.45 140.546,23.255 139.976,23.255 C139.716,23.255 139.466,23.305 139.226,23.405 C138.996,23.505 138.786,23.655 138.596,23.855 C138.406,24.045 138.246,24.28 138.116,24.56 C137.996,24.84 137.916,25.16 137.876,25.52 Z M145.962,29.93 C145.492,29.93 145.157,29.79 144.957,29.51 C144.757,29.23 144.657,28.82 144.657,28.28 L144.657,19.07 L145.887,19.07 L145.887,28.37 C145.887,28.57 145.922,28.71 145.992,28.79 C146.062,28.87 146.142,28.91 146.232,28.91 C146.272,28.91 146.307,28.91 146.337,28.91 C146.377,28.91 146.432,28.9 146.502,28.88 L146.667,29.81 C146.587,29.85 146.492,29.88 146.382,29.9 C146.272,29.92 146.132,29.93 145.962,29.93 Z M151.315,29.93 C150.865,29.93 150.435,29.845 150.025,29.675 C149.625,29.505 149.27,29.26 148.96,28.94 C148.65,28.61 148.4,28.21 148.21,27.74 C148.03,27.26 147.94,26.72 147.94,26.12 C147.94,25.51 148.03,24.97 148.21,24.5 C148.4,24.02 148.65,23.615 148.96,23.285 C149.27,22.955 149.625,22.705 150.025,22.535 C150.435,22.365 150.865,22.28 151.315,22.28 C151.765,22.28 152.19,22.365 152.59,22.535 C153,22.705 153.36,22.955 153.67,23.285 C153.98,23.615 154.225,24.02 154.405,24.5 C154.595,24.97 154.69,25.51 154.69,26.12 C154.69,26.72 154.595,27.26 154.405,27.74 C154.225,28.21 153.98,28.61 153.67,28.94 C153.36,29.26 153,29.505 152.59,29.675 C152.19,29.845 151.765,29.93 151.315,29.93 Z M151.315,28.91 C151.625,28.91 151.91,28.845 152.17,28.715 C152.43,28.575 152.65,28.385 152.83,28.145 C153.02,27.895 153.165,27.6 153.265,27.26 C153.365,26.92 153.415,26.54 153.415,26.12 C153.415,25.7 153.365,25.32 153.265,24.98 C153.165,24.63 153.02,24.33 152.83,24.08 C152.65,23.83 152.43,23.64 152.17,23.51 C151.91,23.37 151.625,23.3 151.315,23.3 C151.005,23.3 150.72,23.37 150.46,23.51 C150.2,23.64 149.975,23.83 149.785,24.08 C149.605,24.33 149.465,24.63 149.365,24.98 C149.265,25.32 149.215,25.7 149.215,26.12 C149.215,26.54 149.265,26.92 149.365,27.26 C149.465,27.6 149.605,27.895 149.785,28.145 C149.975,28.385 150.2,28.575 150.46,28.715 C150.72,28.845 151.005,28.91 151.315,28.91 Z M156.61,32.825 L156.61,22.46 L157.63,22.46 L157.735,23.3 L157.78,23.3 C158.11,23.02 158.47,22.78 158.86,22.58 C159.26,22.38 159.675,22.28 160.105,22.28 C160.575,22.28 160.99,22.37 161.35,22.55 C161.71,22.72 162.01,22.97 162.25,23.3 C162.49,23.62 162.67,24.01 162.79,24.47 C162.92,24.92 162.985,25.43 162.985,26 C162.985,26.62 162.9,27.175 162.73,27.665 C162.56,28.145 162.33,28.555 162.04,28.895 C161.75,29.235 161.415,29.495 161.035,29.675 C160.655,29.845 160.255,29.93 159.835,29.93 C159.495,29.93 159.155,29.855 158.815,29.705 C158.485,29.555 158.15,29.35 157.81,29.09 L157.84,30.365 L157.84,32.825 L156.61,32.825 Z M159.625,28.895 C159.925,28.895 160.2,28.83 160.45,28.7 C160.71,28.56 160.93,28.37 161.11,28.13 C161.3,27.88 161.445,27.575 161.545,27.215 C161.655,26.855 161.71,26.45 161.71,26 C161.71,25.6 161.675,25.235 161.605,24.905 C161.535,24.575 161.42,24.295 161.26,24.065 C161.11,23.825 160.91,23.64 160.66,23.51 C160.42,23.38 160.13,23.315 159.79,23.315 C159.48,23.315 159.165,23.4 158.845,23.57 C158.535,23.74 158.2,23.985 157.84,24.305 L157.84,28.13 C158.17,28.41 158.49,28.61 158.8,28.73 C159.11,28.84 159.385,28.895 159.625,28.895 Z" fill="#1B55E3" fill-rule="nonzero"></path>
                    <path d="M99.5,43.25 L176.5,43.25" stroke="#1454E4" stroke-width="5" stroke-linecap="round"></path>
                    <path d="M219.2,10.75 L219.2,0.91 L220.445,0.91 L220.445,9.685 L224.75,9.685 L224.75,10.75 L219.2,10.75 Z M228.055,10.93 C227.445,10.93 226.935,10.75 226.525,10.39 C226.125,10.03 225.925,9.52 225.925,8.86 C225.925,8.06 226.28,7.45 226.99,7.03 C227.7,6.6 228.835,6.3 230.395,6.13 C230.395,5.9 230.37,5.675 230.32,5.455 C230.28,5.235 230.205,5.04 230.095,4.87 C229.985,4.7 229.83,4.565 229.63,4.465 C229.44,4.355 229.195,4.3 228.895,4.3 C228.475,4.3 228.08,4.38 227.71,4.54 C227.34,4.7 227.01,4.88 226.72,5.08 L226.24,4.225 C226.58,4.005 226.995,3.795 227.485,3.595 C227.975,3.385 228.515,3.28 229.105,3.28 C229.995,3.28 230.64,3.555 231.04,4.105 C231.44,4.645 231.64,5.37 231.64,6.28 L231.64,10.75 L230.62,10.75 L230.515,9.88 L230.47,9.88 C230.12,10.17 229.745,10.42 229.345,10.63 C228.945,10.83 228.515,10.93 228.055,10.93 Z M228.415,9.94 C228.765,9.94 229.095,9.86 229.405,9.7 C229.715,9.53 230.045,9.285 230.395,8.965 L230.395,6.94 C229.785,7.02 229.27,7.115 228.85,7.225 C228.44,7.335 228.105,7.465 227.845,7.615 C227.595,7.765 227.41,7.94 227.29,8.14 C227.18,8.33 227.125,8.54 227.125,8.77 C227.125,9.19 227.25,9.49 227.5,9.67 C227.75,9.85 228.055,9.94 228.415,9.94 Z M236.063,10.93 C235.283,10.93 234.713,10.69 234.353,10.21 C234.003,9.73 233.828,9.02 233.828,8.08 L233.828,3.46 L235.073,3.46 L235.073,7.915 C235.073,8.605 235.178,9.105 235.388,9.415 C235.608,9.715 235.958,9.865 236.438,9.865 C236.818,9.865 237.153,9.77 237.443,9.58 C237.733,9.38 238.053,9.065 238.403,8.635 L238.403,3.46 L239.633,3.46 L239.633,10.75 L238.613,10.75 L238.508,9.61 L238.463,9.61 C238.123,10.01 237.763,10.33 237.383,10.57 C237.013,10.81 236.573,10.93 236.063,10.93 Z M242.092,10.75 L242.092,3.46 L243.112,3.46 L243.217,4.51 L243.262,4.51 C243.612,4.16 243.977,3.87 244.357,3.64 C244.747,3.4 245.197,3.28 245.707,3.28 C246.477,3.28 247.037,3.52 247.387,4 C247.747,4.48 247.927,5.19 247.927,6.13 L247.927,10.75 L246.697,10.75 L246.697,6.295 C246.697,5.605 246.587,5.11 246.367,4.81 C246.147,4.5 245.797,4.345 245.317,4.345 C244.937,4.345 244.602,4.44 244.312,4.63 C244.022,4.82 243.692,5.1 243.322,5.47 L243.322,10.75 L242.092,10.75 Z M253.175,10.93 C252.695,10.93 252.245,10.845 251.825,10.675 C251.405,10.505 251.04,10.26 250.73,9.94 C250.43,9.61 250.19,9.21 250.01,8.74 C249.84,8.26 249.755,7.72 249.755,7.12 C249.755,6.51 249.85,5.97 250.04,5.5 C250.23,5.02 250.485,4.615 250.805,4.285 C251.125,3.955 251.495,3.705 251.915,3.535 C252.345,3.365 252.795,3.28 253.265,3.28 C253.745,3.28 254.155,3.365 254.495,3.535 C254.835,3.705 255.135,3.905 255.395,4.135 L254.765,4.945 C254.555,4.755 254.33,4.6 254.09,4.48 C253.86,4.36 253.6,4.3 253.31,4.3 C252.98,4.3 252.675,4.37 252.395,4.51 C252.115,4.64 251.875,4.83 251.675,5.08 C251.475,5.33 251.315,5.63 251.195,5.98 C251.085,6.32 251.03,6.7 251.03,7.12 C251.03,7.54 251.085,7.92 251.195,8.26 C251.305,8.6 251.455,8.895 251.645,9.145 C251.845,9.385 252.085,9.575 252.365,9.715 C252.645,9.845 252.95,9.91 253.28,9.91 C253.62,9.91 253.93,9.84 254.21,9.7 C254.5,9.55 254.76,9.375 254.99,9.175 L255.53,10 C255.2,10.29 254.835,10.52 254.435,10.69 C254.035,10.85 253.615,10.93 253.175,10.93 Z M257.136,10.75 L257.136,0.07 L258.366,0.07 L258.366,2.98 L258.321,4.48 C258.671,4.15 259.036,3.87 259.416,3.64 C259.796,3.4 260.241,3.28 260.751,3.28 C261.521,3.28 262.081,3.52 262.431,4 C262.791,4.48 262.971,5.19 262.971,6.13 L262.971,10.75 L261.741,10.75 L261.741,6.295 C261.741,5.605 261.631,5.11 261.411,4.81 C261.191,4.5 260.841,4.345 260.361,4.345 C259.981,4.345 259.646,4.44 259.356,4.63 C259.066,4.82 258.736,5.1 258.366,5.47 L258.366,10.75 L257.136,10.75 Z M269.978,10.93 C269.368,10.93 268.858,10.75 268.448,10.39 C268.048,10.03 267.848,9.52 267.848,8.86 C267.848,8.06 268.203,7.45 268.913,7.03 C269.623,6.6 270.758,6.3 272.318,6.13 C272.318,5.9 272.293,5.675 272.243,5.455 C272.203,5.235 272.128,5.04 272.018,4.87 C271.908,4.7 271.753,4.565 271.553,4.465 C271.363,4.355 271.118,4.3 270.818,4.3 C270.398,4.3 270.003,4.38 269.633,4.54 C269.263,4.7 268.933,4.88 268.643,5.08 L268.163,4.225 C268.503,4.005 268.918,3.795 269.408,3.595 C269.898,3.385 270.438,3.28 271.028,3.28 C271.918,3.28 272.563,3.555 272.963,4.105 C273.363,4.645 273.563,5.37 273.563,6.28 L273.563,10.75 L272.543,10.75 L272.438,9.88 L272.393,9.88 C272.043,10.17 271.668,10.42 271.268,10.63 C270.868,10.83 270.438,10.93 269.978,10.93 Z M270.338,9.94 C270.688,9.94 271.018,9.86 271.328,9.7 C271.638,9.53 271.968,9.285 272.318,8.965 L272.318,6.94 C271.708,7.02 271.193,7.115 270.773,7.225 C270.363,7.335 270.028,7.465 269.768,7.615 C269.518,7.765 269.333,7.94 269.213,8.14 C269.103,8.33 269.048,8.54 269.048,8.77 C269.048,9.19 269.173,9.49 269.423,9.67 C269.673,9.85 269.978,9.94 270.338,9.94 Z M275.857,10.75 L275.857,3.46 L276.877,3.46 L276.982,4.51 L277.027,4.51 C277.377,4.16 277.742,3.87 278.122,3.64 C278.512,3.4 278.962,3.28 279.472,3.28 C280.242,3.28 280.802,3.52 281.152,4 C281.512,4.48 281.692,5.19 281.692,6.13 L281.692,10.75 L280.462,10.75 L280.462,6.295 C280.462,5.605 280.352,5.11 280.132,4.81 C279.912,4.5 279.562,4.345 279.082,4.345 C278.702,4.345 278.367,4.44 278.077,4.63 C277.787,4.82 277.457,5.1 277.087,5.47 L277.087,10.75 L275.857,10.75 Z M286.55,10.93 C285.63,10.93 284.895,10.6 284.345,9.94 C283.805,9.28 283.535,8.34 283.535,7.12 C283.535,6.53 283.62,6 283.79,5.53 C283.97,5.05 284.205,4.645 284.495,4.315 C284.785,3.985 285.12,3.73 285.5,3.55 C285.88,3.37 286.28,3.28 286.7,3.28 C287.12,3.28 287.485,3.355 287.795,3.505 C288.105,3.655 288.42,3.86 288.74,4.12 L288.68,2.875 L288.68,0.07 L289.925,0.07 L289.925,10.75 L288.905,10.75 L288.8,9.895 L288.755,9.895 C288.465,10.175 288.13,10.42 287.75,10.63 C287.38,10.83 286.98,10.93 286.55,10.93 Z M286.82,9.895 C287.16,9.895 287.48,9.815 287.78,9.655 C288.08,9.485 288.38,9.23 288.68,8.89 L288.68,5.08 C288.37,4.8 288.07,4.605 287.78,4.495 C287.5,4.375 287.21,4.315 286.91,4.315 C286.62,4.315 286.345,4.385 286.085,4.525 C285.835,4.655 285.615,4.845 285.425,5.095 C285.235,5.335 285.085,5.625 284.975,5.965 C284.865,6.305 284.81,6.685 284.81,7.105 C284.81,7.985 284.985,8.67 285.335,9.16 C285.685,9.65 286.18,9.895 286.82,9.895 Z M240.883,29.75 L240.883,20.96 L237.913,20.96 L237.913,19.91 L245.113,19.91 L245.113,20.96 L242.143,20.96 L242.143,29.75 L240.883,29.75 Z M246.077,29.75 L246.077,22.46 L247.097,22.46 L247.202,23.78 L247.247,23.78 C247.497,23.32 247.797,22.955 248.147,22.685 C248.507,22.415 248.897,22.28 249.317,22.28 C249.607,22.28 249.867,22.33 250.097,22.43 L249.857,23.51 C249.737,23.47 249.627,23.44 249.527,23.42 C249.427,23.4 249.302,23.39 249.152,23.39 C248.842,23.39 248.517,23.515 248.177,23.765 C247.847,24.015 247.557,24.45 247.307,25.07 L247.307,29.75 L246.077,29.75 Z M252.591,29.93 C251.981,29.93 251.471,29.75 251.061,29.39 C250.661,29.03 250.461,28.52 250.461,27.86 C250.461,27.06 250.816,26.45 251.526,26.03 C252.236,25.6 253.371,25.3 254.931,25.13 C254.931,24.9 254.906,24.675 254.856,24.455 C254.816,24.235 254.741,24.04 254.631,23.87 C254.521,23.7 254.366,23.565 254.166,23.465 C253.976,23.355 253.731,23.3 253.431,23.3 C253.011,23.3 252.616,23.38 252.246,23.54 C251.876,23.7 251.546,23.88 251.256,24.08 L250.776,23.225 C251.116,23.005 251.531,22.795 252.021,22.595 C252.511,22.385 253.051,22.28 253.641,22.28 C254.531,22.28 255.176,22.555 255.576,23.105 C255.976,23.645 256.176,24.37 256.176,25.28 L256.176,29.75 L255.156,29.75 L255.051,28.88 L255.006,28.88 C254.656,29.17 254.281,29.42 253.881,29.63 C253.481,29.83 253.051,29.93 252.591,29.93 Z M252.951,28.94 C253.301,28.94 253.631,28.86 253.941,28.7 C254.251,28.53 254.581,28.285 254.931,27.965 L254.931,25.94 C254.321,26.02 253.806,26.115 253.386,26.225 C252.976,26.335 252.641,26.465 252.381,26.615 C252.131,26.765 251.946,26.94 251.826,27.14 C251.716,27.33 251.661,27.54 251.661,27.77 C251.661,28.19 251.786,28.49 252.036,28.67 C252.286,28.85 252.591,28.94 252.951,28.94 Z M261.349,29.93 C260.869,29.93 260.419,29.845 259.999,29.675 C259.579,29.505 259.214,29.26 258.904,28.94 C258.604,28.61 258.364,28.21 258.184,27.74 C258.014,27.26 257.929,26.72 257.929,26.12 C257.929,25.51 258.024,24.97 258.214,24.5 C258.404,24.02 258.659,23.615 258.979,23.285 C259.299,22.955 259.669,22.705 260.089,22.535 C260.519,22.365 260.969,22.28 261.439,22.28 C261.919,22.28 262.329,22.365 262.669,22.535 C263.009,22.705 263.309,22.905 263.569,23.135 L262.939,23.945 C262.729,23.755 262.504,23.6 262.264,23.48 C262.034,23.36 261.774,23.3 261.484,23.3 C261.154,23.3 260.849,23.37 260.569,23.51 C260.289,23.64 260.049,23.83 259.849,24.08 C259.649,24.33 259.489,24.63 259.369,24.98 C259.259,25.32 259.204,25.7 259.204,26.12 C259.204,26.54 259.259,26.92 259.369,27.26 C259.479,27.6 259.629,27.895 259.819,28.145 C260.019,28.385 260.259,28.575 260.539,28.715 C260.819,28.845 261.124,28.91 261.454,28.91 C261.794,28.91 262.104,28.84 262.384,28.7 C262.674,28.55 262.934,28.375 263.164,28.175 L263.704,29 C263.374,29.29 263.009,29.52 262.609,29.69 C262.209,29.85 261.789,29.93 261.349,29.93 Z M265.31,29.75 L265.31,19.07 L266.525,19.07 L266.525,26.3 L266.57,26.3 L269.675,22.46 L271.04,22.46 L268.595,25.385 L271.37,29.75 L270.02,29.75 L267.89,26.24 L266.525,27.83 L266.525,29.75 L265.31,29.75 Z" fill="#786FA4" fill-rule="nonzero"></path>
                    <path d="M337.032,10.75 L337.032,0.91 L338.532,0.91 L340.422,6.16 C340.542,6.5 340.657,6.845 340.767,7.195 C340.887,7.535 341.007,7.875 341.127,8.215 L341.187,8.215 C341.307,7.875 341.417,7.535 341.517,7.195 C341.627,6.845 341.742,6.5 341.862,6.16 L343.722,0.91 L345.237,0.91 L345.237,10.75 L344.067,10.75 L344.067,5.335 C344.067,4.895 344.087,4.41 344.127,3.88 C344.167,3.35 344.202,2.865 344.232,2.425 L344.172,2.425 L343.392,4.66 L341.532,9.76 L340.707,9.76 L338.847,4.66 L338.067,2.425 L338.007,2.425 C338.037,2.865 338.067,3.35 338.097,3.88 C338.137,4.41 338.157,4.895 338.157,5.335 L338.157,10.75 L337.032,10.75 Z M349.49,10.93 C348.88,10.93 348.37,10.75 347.96,10.39 C347.56,10.03 347.36,9.52 347.36,8.86 C347.36,8.06 347.715,7.45 348.425,7.03 C349.135,6.6 350.27,6.3 351.83,6.13 C351.83,5.9 351.805,5.675 351.755,5.455 C351.715,5.235 351.64,5.04 351.53,4.87 C351.42,4.7 351.265,4.565 351.065,4.465 C350.875,4.355 350.63,4.3 350.33,4.3 C349.91,4.3 349.515,4.38 349.145,4.54 C348.775,4.7 348.445,4.88 348.155,5.08 L347.675,4.225 C348.015,4.005 348.43,3.795 348.92,3.595 C349.41,3.385 349.95,3.28 350.54,3.28 C351.43,3.28 352.075,3.555 352.475,4.105 C352.875,4.645 353.075,5.37 353.075,6.28 L353.075,10.75 L352.055,10.75 L351.95,9.88 L351.905,9.88 C351.555,10.17 351.18,10.42 350.78,10.63 C350.38,10.83 349.95,10.93 349.49,10.93 Z M349.85,9.94 C350.2,9.94 350.53,9.86 350.84,9.7 C351.15,9.53 351.48,9.285 351.83,8.965 L351.83,6.94 C351.22,7.02 350.705,7.115 350.285,7.225 C349.875,7.335 349.54,7.465 349.28,7.615 C349.03,7.765 348.845,7.94 348.725,8.14 C348.615,8.33 348.56,8.54 348.56,8.77 C348.56,9.19 348.685,9.49 348.935,9.67 C349.185,9.85 349.49,9.94 349.85,9.94 Z M355.369,10.75 L355.369,3.46 L356.389,3.46 L356.494,4.78 L356.539,4.78 C356.789,4.32 357.089,3.955 357.439,3.685 C357.799,3.415 358.189,3.28 358.609,3.28 C358.899,3.28 359.159,3.33 359.389,3.43 L359.149,4.51 C359.029,4.47 358.919,4.44 358.819,4.42 C358.719,4.4 358.594,4.39 358.444,4.39 C358.134,4.39 357.809,4.515 357.469,4.765 C357.139,5.015 356.849,5.45 356.599,6.07 L356.599,10.75 L355.369,10.75 Z M360.569,10.75 L360.569,0.07 L361.784,0.07 L361.784,7.3 L361.829,7.3 L364.934,3.46 L366.299,3.46 L363.854,6.385 L366.629,10.75 L365.279,10.75 L363.149,7.24 L361.784,8.83 L361.784,10.75 L360.569,10.75 Z M370.687,10.93 C370.197,10.93 369.737,10.845 369.307,10.675 C368.887,10.495 368.517,10.245 368.197,9.925 C367.887,9.595 367.642,9.195 367.462,8.725 C367.282,8.255 367.192,7.72 367.192,7.12 C367.192,6.52 367.282,5.985 367.462,5.515 C367.652,5.035 367.897,4.63 368.197,4.3 C368.507,3.97 368.857,3.72 369.247,3.55 C369.637,3.37 370.042,3.28 370.462,3.28 C370.922,3.28 371.332,3.36 371.692,3.52 C372.062,3.68 372.367,3.91 372.607,4.21 C372.857,4.51 373.047,4.87 373.177,5.29 C373.307,5.71 373.372,6.18 373.372,6.7 C373.372,6.83 373.367,6.96 373.357,7.09 C373.357,7.21 373.347,7.315 373.327,7.405 L368.407,7.405 C368.457,8.185 368.697,8.805 369.127,9.265 C369.567,9.715 370.137,9.94 370.837,9.94 C371.187,9.94 371.507,9.89 371.797,9.79 C372.097,9.68 372.382,9.54 372.652,9.37 L373.087,10.18 C372.767,10.38 372.412,10.555 372.022,10.705 C371.632,10.855 371.187,10.93 370.687,10.93 Z M368.392,6.52 L372.292,6.52 C372.292,5.78 372.132,5.22 371.812,4.84 C371.502,4.45 371.062,4.255 370.492,4.255 C370.232,4.255 369.982,4.305 369.742,4.405 C369.512,4.505 369.302,4.655 369.112,4.855 C368.922,5.045 368.762,5.28 368.632,5.56 C368.512,5.84 368.432,6.16 368.392,6.52 Z M377.322,10.93 C376.932,10.93 376.602,10.87 376.332,10.75 C376.072,10.63 375.857,10.465 375.687,10.255 C375.527,10.045 375.412,9.79 375.342,9.49 C375.272,9.19 375.237,8.86 375.237,8.5 L375.237,4.465 L374.157,4.465 L374.157,3.535 L375.297,3.46 L375.447,1.42 L376.482,1.42 L376.482,3.46 L378.447,3.46 L378.447,4.465 L376.482,4.465 L376.482,8.515 C376.482,8.965 376.562,9.315 376.722,9.565 C376.892,9.805 377.187,9.925 377.607,9.925 C377.737,9.925 377.877,9.905 378.027,9.865 C378.177,9.825 378.312,9.78 378.432,9.73 L378.672,10.66 C378.472,10.73 378.252,10.79 378.012,10.84 C377.782,10.9 377.552,10.93 377.322,10.93 Z M380.095,10.75 L380.095,3.46 L381.325,3.46 L381.325,10.75 L380.095,10.75 Z M380.725,1.96 C380.485,1.96 380.28,1.885 380.11,1.735 C379.95,1.585 379.87,1.395 379.87,1.165 C379.87,0.925 379.95,0.735 380.11,0.595 C380.28,0.445 380.485,0.37 380.725,0.37 C380.965,0.37 381.165,0.445 381.325,0.595 C381.495,0.735 381.58,0.925 381.58,1.165 C381.58,1.395 381.495,1.585 381.325,1.735 C381.165,1.885 380.965,1.96 380.725,1.96 Z M383.787,10.75 L383.787,3.46 L384.807,3.46 L384.912,4.51 L384.957,4.51 C385.307,4.16 385.672,3.87 386.052,3.64 C386.442,3.4 386.892,3.28 387.402,3.28 C388.172,3.28 388.732,3.52 389.082,4 C389.442,4.48 389.622,5.19 389.622,6.13 L389.622,10.75 L388.392,10.75 L388.392,6.295 C388.392,5.605 388.282,5.11 388.062,4.81 C387.842,4.5 387.492,4.345 387.012,4.345 C386.632,4.345 386.297,4.44 386.007,4.63 C385.717,4.82 385.387,5.1 385.017,5.47 L385.017,10.75 L383.787,10.75 Z M394.45,14.11 C394,14.11 393.59,14.065 393.22,13.975 C392.85,13.895 392.53,13.77 392.26,13.6 C392,13.43 391.795,13.225 391.645,12.985 C391.505,12.745 391.435,12.465 391.435,12.145 C391.435,11.835 391.53,11.54 391.72,11.26 C391.91,10.98 392.17,10.725 392.5,10.495 L392.5,10.435 C392.32,10.325 392.165,10.175 392.035,9.985 C391.915,9.785 391.855,9.54 391.855,9.25 C391.855,8.94 391.94,8.67 392.11,8.44 C392.28,8.21 392.46,8.03 392.65,7.9 L392.65,7.84 C392.41,7.64 392.19,7.375 391.99,7.045 C391.8,6.705 391.705,6.315 391.705,5.875 C391.705,5.475 391.775,5.115 391.915,4.795 C392.065,4.475 392.265,4.205 392.515,3.985 C392.765,3.755 393.055,3.58 393.385,3.46 C393.725,3.34 394.08,3.28 394.45,3.28 C394.65,3.28 394.835,3.3 395.005,3.34 C395.185,3.37 395.345,3.41 395.485,3.46 L398.02,3.46 L398.02,4.405 L396.52,4.405 C396.69,4.575 396.83,4.79 396.94,5.05 C397.06,5.31 397.12,5.595 397.12,5.905 C397.12,6.295 397.05,6.65 396.91,6.97 C396.77,7.28 396.58,7.545 396.34,7.765 C396.1,7.975 395.815,8.14 395.485,8.26 C395.165,8.38 394.82,8.44 394.45,8.44 C394.27,8.44 394.085,8.42 393.895,8.38 C393.705,8.33 393.525,8.265 393.355,8.185 C393.225,8.295 393.115,8.42 393.025,8.56 C392.935,8.69 392.89,8.855 392.89,9.055 C392.89,9.285 392.98,9.475 393.16,9.625 C393.34,9.775 393.68,9.85 394.18,9.85 L395.59,9.85 C396.44,9.85 397.075,9.99 397.495,10.27 C397.925,10.54 398.14,10.98 398.14,11.59 C398.14,11.93 398.055,12.25 397.885,12.55 C397.715,12.86 397.47,13.13 397.15,13.36 C396.83,13.59 396.44,13.77 395.98,13.9 C395.53,14.04 395.02,14.11 394.45,14.11 Z M394.45,7.615 C394.66,7.615 394.855,7.575 395.035,7.495 C395.225,7.415 395.39,7.3 395.53,7.15 C395.68,7 395.795,6.82 395.875,6.61 C395.955,6.39 395.995,6.145 395.995,5.875 C395.995,5.335 395.845,4.92 395.545,4.63 C395.245,4.33 394.88,4.18 394.45,4.18 C394.02,4.18 393.655,4.33 393.355,4.63 C393.055,4.92 392.905,5.335 392.905,5.875 C392.905,6.145 392.945,6.39 393.025,6.61 C393.105,6.82 393.215,7 393.355,7.15 C393.505,7.3 393.67,7.415 393.85,7.495 C394.04,7.575 394.24,7.615 394.45,7.615 Z M394.63,13.255 C394.98,13.255 395.295,13.21 395.575,13.12 C395.865,13.04 396.11,12.93 396.31,12.79 C396.51,12.66 396.665,12.505 396.775,12.325 C396.885,12.145 396.94,11.96 396.94,11.77 C396.94,11.43 396.815,11.195 396.565,11.065 C396.315,10.935 395.95,10.87 395.47,10.87 L394.21,10.87 C394.07,10.87 393.915,10.86 393.745,10.84 C393.585,10.83 393.425,10.8 393.265,10.75 C393.005,10.94 392.815,11.14 392.695,11.35 C392.575,11.56 392.515,11.77 392.515,11.98 C392.515,12.37 392.7,12.68 393.07,12.91 C393.45,13.14 393.97,13.255 394.63,13.255 Z M347.848,29.93 C347.398,29.93 346.988,29.865 346.618,29.735 C346.258,29.595 345.943,29.405 345.673,29.165 C345.413,28.925 345.208,28.64 345.058,28.31 C344.918,27.97 344.848,27.6 344.848,27.2 C344.848,26.87 344.898,26.57 344.998,26.3 C345.108,26.03 345.253,25.78 345.433,25.55 C345.613,25.32 345.818,25.11 346.048,24.92 C346.288,24.72 346.533,24.535 346.783,24.365 C346.583,23.955 346.423,23.56 346.303,23.18 C346.193,22.79 346.138,22.415 346.138,22.055 C346.138,21.725 346.193,21.42 346.303,21.14 C346.413,20.86 346.568,20.615 346.768,20.405 C346.968,20.195 347.208,20.03 347.488,19.91 C347.768,19.79 348.078,19.73 348.418,19.73 C349.028,19.73 349.503,19.91 349.843,20.27 C350.183,20.63 350.353,21.1 350.353,21.68 C350.353,22 350.288,22.295 350.158,22.565 C350.028,22.835 349.858,23.09 349.648,23.33 C349.438,23.56 349.198,23.78 348.928,23.99 C348.668,24.19 348.403,24.39 348.133,24.59 C348.453,25.1 348.828,25.59 349.258,26.06 C349.698,26.53 350.153,26.96 350.623,27.35 C350.923,26.94 351.188,26.495 351.418,26.015 C351.658,25.535 351.853,25.01 352.003,24.44 L353.158,24.44 C352.958,25.09 352.718,25.71 352.438,26.3 C352.158,26.89 351.823,27.445 351.433,27.965 C351.773,28.195 352.098,28.39 352.408,28.55 C352.718,28.71 353.008,28.83 353.278,28.91 L352.948,29.93 C352.598,29.83 352.233,29.69 351.853,29.51 C351.473,29.32 351.083,29.085 350.683,28.805 C350.303,29.145 349.878,29.42 349.408,29.63 C348.948,29.83 348.428,29.93 347.848,29.93 Z M347.203,22.04 C347.203,22.31 347.243,22.59 347.323,22.88 C347.413,23.17 347.528,23.465 347.668,23.765 C347.888,23.615 348.098,23.465 348.298,23.315 C348.508,23.155 348.688,22.995 348.838,22.835 C348.998,22.665 349.123,22.49 349.213,22.31 C349.303,22.12 349.348,21.915 349.348,21.695 C349.348,21.405 349.273,21.155 349.123,20.945 C348.983,20.725 348.748,20.615 348.418,20.615 C348.048,20.615 347.753,20.75 347.533,21.02 C347.313,21.29 347.203,21.63 347.203,22.04 Z M347.983,28.94 C348.323,28.94 348.648,28.87 348.958,28.73 C349.268,28.59 349.568,28.395 349.858,28.145 C349.378,27.725 348.913,27.27 348.463,26.78 C348.023,26.28 347.628,25.76 347.278,25.22 C346.928,25.5 346.633,25.795 346.393,26.105 C346.163,26.405 346.048,26.745 346.048,27.125 C346.048,27.395 346.098,27.645 346.198,27.875 C346.298,28.095 346.433,28.285 346.603,28.445 C346.783,28.605 346.988,28.73 347.218,28.82 C347.458,28.9 347.713,28.94 347.983,28.94 Z M360.592,29.93 C359.902,29.93 359.262,29.8 358.672,29.54 C358.082,29.28 357.572,28.925 357.142,28.475 L357.892,27.605 C358.242,27.975 358.652,28.275 359.122,28.505 C359.602,28.725 360.097,28.835 360.607,28.835 C361.257,28.835 361.762,28.69 362.122,28.4 C362.482,28.1 362.662,27.71 362.662,27.23 C362.662,26.98 362.617,26.77 362.527,26.6 C362.447,26.42 362.332,26.27 362.182,26.15 C362.042,26.02 361.872,25.905 361.672,25.805 C361.472,25.705 361.257,25.6 361.027,25.49 L359.617,24.875 C359.387,24.775 359.152,24.655 358.912,24.515 C358.672,24.375 358.457,24.205 358.267,24.005 C358.077,23.805 357.922,23.57 357.802,23.3 C357.682,23.02 357.622,22.7 357.622,22.34 C357.622,21.97 357.697,21.625 357.847,21.305 C358.007,20.985 358.222,20.71 358.492,20.48 C358.772,20.24 359.097,20.055 359.467,19.925 C359.847,19.795 360.262,19.73 360.712,19.73 C361.302,19.73 361.847,19.845 362.347,20.075 C362.847,20.295 363.272,20.585 363.622,20.945 L362.947,21.755 C362.647,21.465 362.312,21.24 361.942,21.08 C361.582,20.91 361.172,20.825 360.712,20.825 C360.162,20.825 359.717,20.955 359.377,21.215 C359.047,21.465 358.882,21.815 358.882,22.265 C358.882,22.505 358.927,22.71 359.017,22.88 C359.117,23.04 359.247,23.185 359.407,23.315 C359.567,23.435 359.742,23.545 359.932,23.645 C360.122,23.735 360.317,23.82 360.517,23.9 L361.912,24.5 C362.192,24.62 362.457,24.76 362.707,24.92 C362.957,25.07 363.172,25.25 363.352,25.46 C363.532,25.66 363.672,25.9 363.772,26.18 C363.882,26.45 363.937,26.765 363.937,27.125 C363.937,27.515 363.857,27.88 363.697,28.22 C363.547,28.56 363.327,28.86 363.037,29.12 C362.747,29.37 362.397,29.57 361.987,29.72 C361.577,29.86 361.112,29.93 360.592,29.93 Z M367.434,29.93 C366.824,29.93 366.314,29.75 365.904,29.39 C365.504,29.03 365.304,28.52 365.304,27.86 C365.304,27.06 365.659,26.45 366.369,26.03 C367.079,25.6 368.214,25.3 369.774,25.13 C369.774,24.9 369.749,24.675 369.699,24.455 C369.659,24.235 369.584,24.04 369.474,23.87 C369.364,23.7 369.209,23.565 369.009,23.465 C368.819,23.355 368.574,23.3 368.274,23.3 C367.854,23.3 367.459,23.38 367.089,23.54 C366.719,23.7 366.389,23.88 366.099,24.08 L365.619,23.225 C365.959,23.005 366.374,22.795 366.864,22.595 C367.354,22.385 367.894,22.28 368.484,22.28 C369.374,22.28 370.019,22.555 370.419,23.105 C370.819,23.645 371.019,24.37 371.019,25.28 L371.019,29.75 L369.999,29.75 L369.894,28.88 L369.849,28.88 C369.499,29.17 369.124,29.42 368.724,29.63 C368.324,29.83 367.894,29.93 367.434,29.93 Z M367.794,28.94 C368.144,28.94 368.474,28.86 368.784,28.7 C369.094,28.53 369.424,28.285 369.774,27.965 L369.774,25.94 C369.164,26.02 368.649,26.115 368.229,26.225 C367.819,26.335 367.484,26.465 367.224,26.615 C366.974,26.765 366.789,26.94 366.669,27.14 C366.559,27.33 366.504,27.54 366.504,27.77 C366.504,28.19 366.629,28.49 366.879,28.67 C367.129,28.85 367.434,28.94 367.794,28.94 Z M374.618,29.93 C374.148,29.93 373.813,29.79 373.613,29.51 C373.413,29.23 373.313,28.82 373.313,28.28 L373.313,19.07 L374.543,19.07 L374.543,28.37 C374.543,28.57 374.578,28.71 374.648,28.79 C374.718,28.87 374.798,28.91 374.888,28.91 C374.928,28.91 374.963,28.91 374.993,28.91 C375.033,28.91 375.088,28.9 375.158,28.88 L375.323,29.81 C375.243,29.85 375.148,29.88 375.038,29.9 C374.928,29.92 374.788,29.93 374.618,29.93 Z M380.091,29.93 C379.601,29.93 379.141,29.845 378.711,29.675 C378.291,29.495 377.921,29.245 377.601,28.925 C377.291,28.595 377.046,28.195 376.866,27.725 C376.686,27.255 376.596,26.72 376.596,26.12 C376.596,25.52 376.686,24.985 376.866,24.515 C377.056,24.035 377.301,23.63 377.601,23.3 C377.911,22.97 378.261,22.72 378.651,22.55 C379.041,22.37 379.446,22.28 379.866,22.28 C380.326,22.28 380.736,22.36 381.096,22.52 C381.466,22.68 381.771,22.91 382.011,23.21 C382.261,23.51 382.451,23.87 382.581,24.29 C382.711,24.71 382.776,25.18 382.776,25.7 C382.776,25.83 382.771,25.96 382.761,26.09 C382.761,26.21 382.751,26.315 382.731,26.405 L377.811,26.405 C377.861,27.185 378.101,27.805 378.531,28.265 C378.971,28.715 379.541,28.94 380.241,28.94 C380.591,28.94 380.911,28.89 381.201,28.79 C381.501,28.68 381.786,28.54 382.056,28.37 L382.491,29.18 C382.171,29.38 381.816,29.555 381.426,29.705 C381.036,29.855 380.591,29.93 380.091,29.93 Z M377.796,25.52 L381.696,25.52 C381.696,24.78 381.536,24.22 381.216,23.84 C380.906,23.45 380.466,23.255 379.896,23.255 C379.636,23.255 379.386,23.305 379.146,23.405 C378.916,23.505 378.706,23.655 378.516,23.855 C378.326,24.045 378.166,24.28 378.036,24.56 C377.916,24.84 377.836,25.16 377.796,25.52 Z M386.483,29.93 C385.963,29.93 385.468,29.835 384.998,29.645 C384.528,29.455 384.118,29.215 383.768,28.925 L384.383,28.1 C384.703,28.36 385.028,28.57 385.358,28.73 C385.698,28.89 386.088,28.97 386.528,28.97 C387.008,28.97 387.368,28.86 387.608,28.64 C387.848,28.42 387.968,28.15 387.968,27.83 C387.968,27.64 387.918,27.475 387.818,27.335 C387.718,27.195 387.588,27.075 387.428,26.975 C387.278,26.865 387.103,26.77 386.903,26.69 C386.703,26.61 386.503,26.53 386.303,26.45 C386.043,26.36 385.783,26.26 385.523,26.15 C385.263,26.03 385.028,25.89 384.818,25.73 C384.618,25.56 384.453,25.365 384.323,25.145 C384.193,24.925 384.128,24.66 384.128,24.35 C384.128,24.06 384.183,23.79 384.293,23.54 C384.413,23.28 384.578,23.06 384.788,22.88 C385.008,22.69 385.273,22.545 385.583,22.445 C385.893,22.335 386.243,22.28 386.633,22.28 C387.093,22.28 387.513,22.36 387.893,22.52 C388.283,22.68 388.618,22.875 388.898,23.105 L388.313,23.885 C388.063,23.695 387.803,23.54 387.533,23.42 C387.263,23.3 386.968,23.24 386.648,23.24 C386.188,23.24 385.848,23.345 385.628,23.555 C385.418,23.765 385.313,24.01 385.313,24.29 C385.313,24.46 385.358,24.61 385.448,24.74 C385.538,24.86 385.658,24.97 385.808,25.07 C385.958,25.16 386.128,25.245 386.318,25.325 C386.518,25.395 386.723,25.47 386.933,25.55 C387.193,25.65 387.453,25.755 387.713,25.865 C387.983,25.975 388.223,26.115 388.433,26.285 C388.643,26.445 388.813,26.645 388.943,26.885 C389.083,27.125 389.153,27.415 389.153,27.755 C389.153,28.055 389.093,28.335 388.973,28.595 C388.863,28.855 388.693,29.085 388.463,29.285 C388.243,29.485 387.963,29.64 387.623,29.75 C387.293,29.87 386.913,29.93 386.483,29.93 Z" fill="#786FA4" fill-rule="nonzero"></path>
                </g>
                <g id="Shape" transform="translate(48.000000, 171.000000)">
                    <path d="M38.417,0.659 C43.454,0.747 48.424,1.826 53.044,3.835 C57.663,5.844 61.842,8.743 65.341,12.366 C68.841,15.99 71.592,20.268 73.438,24.955 C75.285,29.642 76.19,34.646 76.102,39.683" stroke="#FC1317" stroke-width="5.94314"></path>
                    <path d="M76.086,40.339 C75.744,50.131 71.668,59.422 64.694,66.304 C57.72,73.186 48.376,77.139 38.58,77.351" stroke="#4CBE8C" stroke-width="5.94314"></path>
                    <path d="M37.75,75.831 C32.913,75.831 28.1234,74.879 23.6548,73.028 C19.1862,71.177 15.1259,68.464 11.7058,65.044 C8.2857,61.624 5.5727,57.563 3.7217,53.095 C1.8708,48.626 0.9181,43.837 0.9181,39 C0.9181,34.163 1.8708,29.374 3.7217,24.905 C5.5727,20.437 8.2857,16.376 11.7058,12.956 C15.1259,9.536 19.1862,6.823 23.6548,4.972 C28.1234,3.121 32.913,2.169 37.75,2.169" stroke="#1454E4" stroke-width="9"></path>
                </g>
                <path d="M80.556,215.043 L80.556,212.763 L76.4305,212.763 L76.4305,211.248 L79.911,205.518 L82.611,205.518 L82.611,211.083 L83.706,211.083 L83.706,212.763 L82.611,212.763 L82.611,215.043 L80.556,215.043 Z M78.5455,211.083 L80.556,211.083 L80.556,209.538 C80.556,209.228 80.566,208.873 80.586,208.473 C80.606,208.063 80.626,207.708 80.646,207.408 L80.586,207.408 C80.466,207.668 80.341,207.933 80.211,208.203 C80.081,208.473 79.946,208.743 79.806,209.013 L78.5455,211.083 Z M87.775,215.223 C86.995,215.223 86.335,215.098 85.795,214.848 C85.255,214.588 84.795,214.268 84.415,213.888 L85.405,212.493 C85.695,212.753 86.005,212.978 86.335,213.168 C86.675,213.348 87.05,213.438 87.46,213.438 C87.95,213.438 88.34,213.313 88.63,213.063 C88.92,212.813 89.065,212.443 89.065,211.953 C89.065,211.473 88.925,211.108 88.645,210.858 C88.375,210.608 88.015,210.483 87.565,210.483 C87.425,210.483 87.3,210.493 87.19,210.513 C87.08,210.523 86.97,210.548 86.86,210.588 C86.76,210.628 86.65,210.678 86.53,210.738 C86.42,210.798 86.295,210.873 86.155,210.963 L85.165,210.333 L85.435,205.518 L90.835,205.518 L90.835,207.378 L87.34,207.378 L87.175,209.163 C87.355,209.083 87.525,209.028 87.685,208.998 C87.855,208.958 88.04,208.938 88.24,208.938 C88.65,208.938 89.035,208.998 89.395,209.118 C89.765,209.238 90.09,209.418 90.37,209.658 C90.65,209.898 90.87,210.203 91.03,210.573 C91.19,210.943 91.27,211.383 91.27,211.893 C91.27,212.423 91.175,212.893 90.985,213.303 C90.795,213.713 90.54,214.063 90.22,214.353 C89.9,214.633 89.525,214.848 89.095,214.998 C88.675,215.148 88.235,215.223 87.775,215.223 Z" id="Shape" fill="#C9C9C9" fill-rule="nonzero"></path>
                <rect id="Rectangle-path" stroke="#DDE2EC" x="32" y="152" width="107" height="116" rx="4"></rect>
                <g transform="translate(155.000000, 152.000000)">
                    <rect id="Rectangle-path" stroke="#F2F4F8" stroke-linecap="round" x="80.25" y="0" width="26.75" height="116"></rect>
                    <rect id="Rectangle-path" stroke="#F2F4F8" stroke-linecap="round" x="0" y="0" width="26.75" height="116"></rect>
                    <rect id="Rectangle-path" stroke="#F2F4F8" stroke-linecap="round" x="26.75" y="0" width="26.75" height="116"></rect>
                    <rect id="Rectangle-path" stroke="#F2F4F8" stroke-linecap="round" x="53.5" y="0" width="26.75" height="116"></rect>
                    <rect id="Rectangle-path" stroke="#F2F4F8" stroke-linecap="round" transform="translate(53.500000, 14.500000) rotate(-90.000000) translate(-53.500000, -14.500000) " x="39" y="-39" width="29" height="107"></rect>
                    <rect id="Rectangle-path" stroke="#F2F4F8" stroke-linecap="round" transform="translate(53.500000, 101.500000) rotate(-90.000000) translate(-53.500000, -101.500000) " x="39" y="48" width="29" height="107"></rect>
                    <rect id="Rectangle-path" stroke="#F2F4F8" stroke-linecap="round" transform="translate(53.500000, 72.500000) rotate(-90.000000) translate(-53.500000, -72.500000) " x="39" y="19" width="29" height="107"></rect>
                    <rect id="Rectangle-path" stroke="#F2F4F8" stroke-linecap="round" transform="translate(53.500000, 43.500000) rotate(-90.000000) translate(-53.500000, -43.500000) " x="39" y="-10" width="29" height="107"></rect>
                    <circle id="Oval" fill="#3D6EE7" fill-rule="nonzero" cx="16.5" cy="43.5" r="5.5"></circle>
                    <circle id="Oval" fill="#3D6EE7" fill-rule="nonzero" cx="32" cy="73" r="5"></circle>
                    <circle id="Oval" fill="#3D6EE7" fill-rule="nonzero" cx="75" cy="81" r="5"></circle>
                    <circle id="Oval" fill="#1454E4" fill-rule="nonzero" cx="65.5" cy="39.5" r="7.5"></circle>
                    <circle id="Oval" fill="#1454E4" fill-rule="nonzero" cx="97.5" cy="27.5" r="7.5"></circle>
                </g>
                <path d="M159,152.5 L258,152.5 L258,151.5 L159,151.5 L159,152.5 Z M261.5,156 L261.5,264 L262.5,264 L262.5,156 L261.5,156 Z M258,267.5 L159,267.5 L159,268.5 L258,268.5 L258,267.5 Z M155.5,264 L155.5,156 L154.5,156 L154.5,264 L155.5,264 Z M159,267.5 C157.067,267.5 155.5,265.933 155.5,264 L154.5,264 C154.5,266.485 156.515,268.5 159,268.5 L159,267.5 Z M261.5,264 C261.5,265.933 259.933,267.5 258,267.5 L258,268.5 C260.485,268.5 262.5,266.485 262.5,264 L261.5,264 Z M258,152.5 C259.933,152.5 261.5,154.067 261.5,156 L262.5,156 C262.5,153.515 260.485,151.5 258,151.5 L258,152.5 Z M159,151.5 C156.515,151.5 154.5,153.515 154.5,156 L155.5,156 C155.5,154.067 157.067,152.5 159,152.5 L159,151.5 Z" id="Shape" fill="#DDE2EC" fill-rule="nonzero"></path>
                <g transform="translate(278.000000, 152.000000)">
                    <mask id="mask-2" fill="white">
                        <use xlink:href="#path-1"></use>
                    </mask>
                    <g id="Rectangle"></g>
                    <path d="M-114.681,85.079 L-97.269,69.42 C-90.709,63.521 -81.253,62.125 -73.268,65.877 C-66.013,69.286 -57.477,68.467 -51.002,63.741 L-47.497,61.182 C-39.284,55.187 -28.481,54.074 -19.218,58.268 C-12.255,61.421 -4.311,61.615 2.797,58.805 L12.887,54.816 C18.403,52.636 24.416,52.031 30.256,53.07 L35.608,54.022 C43.379,55.405 51.357,53.82 58.272,50.014 C66.473,45.498 77.287,40.152 82.503,40.152" id="Shape" stroke="#1454E4" stroke-width="3" stroke-linecap="round" mask="url(#mask-2)"></path>
                    <path d="M12.887,54.816 L2.797,58.805 C-4.311,61.615 -12.255,61.421 -19.218,58.268 C-28.481,54.074 -39.406,55.276 -47.619,61.271 C-56.102,67.463 -67.413,68.628 -76.918,64.162 L-77.202,64.028 L-77.202,116 L82.503,116 L82.503,40.152 C77.287,40.152 66.473,45.498 58.272,50.014 C51.357,53.82 43.379,55.405 35.608,54.022 L30.256,53.07 C24.416,52.031 18.403,52.636 12.887,54.816 Z" id="Shape" fill="url(#linearGradient-3)" fill-rule="nonzero" mask="url(#mask-2)"></path>
                    <path d="M82.502,40.152 C88.169,40.152 94.123,40.577 99.256,41.092 C108.326,42.002 117.552,41.006 125.953,37.466 L143.681,29.995" id="Shape" stroke="#1454E4" stroke-width="3" stroke-linecap="round" stroke-dasharray="4" mask="url(#mask-2)"></path>
                    <circle id="Oval" stroke="#FFFFFF" stroke-width="2" fill="#1454E4" fill-rule="nonzero" stroke-linecap="round" mask="url(#mask-2)" cx="83.026" cy="40.077" r="4"></circle>
                    <rect id="Rectangle-path" stroke="#F2F4F8" stroke-linecap="round" mask="url(#mask-2)" x="80.25" y="0" width="26.75" height="116"></rect>
                    <rect id="Rectangle-path" stroke="#F2F4F8" stroke-linecap="round" mask="url(#mask-2)" x="0" y="0" width="26.75" height="116"></rect>
                    <rect id="Rectangle-path" stroke="#F2F4F8" stroke-linecap="round" mask="url(#mask-2)" x="26.75" y="0" width="26.75" height="116"></rect>
                    <rect id="Rectangle-path" stroke="#F2F4F8" stroke-linecap="round" mask="url(#mask-2)" x="53.5" y="0" width="26.75" height="116"></rect>
                    <rect id="Rectangle-path" stroke="#F2F4F8" stroke-linecap="round" mask="url(#mask-2)" transform="translate(53.500000, 14.500000) rotate(-90.000000) translate(-53.500000, -14.500000) " x="39" y="-39" width="29" height="107"></rect>
                    <rect id="Rectangle-path" stroke="#F2F4F8" stroke-linecap="round" mask="url(#mask-2)" transform="translate(53.500000, 101.500000) rotate(-90.000000) translate(-53.500000, -101.500000) " x="39" y="48" width="29" height="107"></rect>
                    <rect id="Rectangle-path" stroke="#F2F4F8" stroke-linecap="round" mask="url(#mask-2)" transform="translate(53.500000, 72.500000) rotate(-90.000000) translate(-53.500000, -72.500000) " x="39" y="19" width="29" height="107"></rect>
                    <rect id="Rectangle-path" stroke="#F2F4F8" stroke-linecap="round" mask="url(#mask-2)" transform="translate(53.500000, 43.500000) rotate(-90.000000) translate(-53.500000, -43.500000) " x="39" y="-10" width="29" height="107"></rect>
                </g>
                <path d="M282,152.5 L381,152.5 L381,151.5 L282,151.5 L282,152.5 Z M384.5,156 L384.5,264 L385.5,264 L385.5,156 L384.5,156 Z M381,267.5 L282,267.5 L282,268.5 L381,268.5 L381,267.5 Z M278.5,264 L278.5,156 L277.5,156 L277.5,264 L278.5,264 Z M282,267.5 C280.067,267.5 278.5,265.933 278.5,264 L277.5,264 C277.5,266.485 279.515,268.5 282,268.5 L282,267.5 Z M384.5,264 C384.5,265.933 382.933,267.5 381,267.5 L381,268.5 C383.485,268.5 385.5,266.485 385.5,264 L384.5,264 Z M381,152.5 C382.933,152.5 384.5,154.067 384.5,156 L385.5,156 C385.5,153.515 383.485,151.5 381,151.5 L381,152.5 Z M282,151.5 C279.515,151.5 277.5,153.515 277.5,156 L278.5,156 C278.5,154.067 280.067,152.5 282,152.5 L282,151.5 Z" id="Shape" fill="#DDE2EC" fill-rule="nonzero"></path>
                <g id="Shape" transform="translate(416.000000, 181.000000)" fill-rule="nonzero">
                    <g id="Group">
                        <g id="Shape">
                            <polygon fill="#F2F4F8" points="0.5 57.872 0.5 0.125 6 0.125 6 57.872"></polygon>
                            <path d="M1.875,57.875 C1.116,57.875 0.5,57.259 0.5,56.5 L0.5,43.964 C0.5,43.205 1.116,42.589 1.875,42.589 L4.625,42.589 C5.384,42.589 6,43.205 6,43.964 L6,56.5 C6,57.259 5.384,57.875 4.625,57.875 L1.875,57.875 Z" fill="#1454E4"></path>
                        </g>
                        <g transform="translate(11.000000, 0.000000)" id="Shape">
                            <polygon fill="#F2F4F8" points="0.5 57.872 0.5 0.125 6 0.125 6 57.872"></polygon>
                            <path d="M1.875,57.875 C1.116,57.875 0.5,57.259 0.5,56.5 L0.5,27.625 C0.5,26.866 1.116,26.25 1.875,26.25 L4.625,26.25 C5.384,26.25 6,26.866 6,27.625 L6,56.5 C6,57.259 5.384,57.875 4.625,57.875 L1.875,57.875 Z" fill="#1454E4"></path>
                        </g>
                    </g>
                    <g id="Group" transform="translate(30.000000, 0.000000)">
                        <g id="Shape">
                            <polygon fill="#F2F4F8" points="0.75 57.872 0.75 0.125 6.25 0.125 6.25 57.872"></polygon>
                            <path d="M2.125,57.875 C1.366,57.875 0.75,57.259 0.75,56.5 L0.75,40 C0.75,39.241 1.366,38.625 2.125,38.625 L4.875,38.625 C5.634,38.625 6.25,39.241 6.25,40 L6.25,56.5 C6.25,57.259 5.634,57.875 4.875,57.875 L2.125,57.875 Z" fill="#1454E4"></path>
                        </g>
                        <g transform="translate(11.000000, 0.000000)" id="Shape">
                            <polygon fill="#F2F4F8" points="0.75 57.872 0.75 0.125 6.25 0.125 6.25 57.872"></polygon>
                            <path d="M2.125,57.875 C1.366,57.875 0.75,57.259 0.75,56.5 L0.75,16.625 C0.75,15.866 1.366,15.25 2.125,15.25 L4.875,15.25 C5.634,15.25 6.25,15.866 6.25,16.625 L6.25,56.5 C6.25,57.259 5.634,57.875 4.875,57.875 L2.125,57.875 Z" fill="#1454E4"></path>
                        </g>
                    </g>
                    <g id="Group" transform="translate(61.000000, 0.000000)">
                        <g id="Shape">
                            <polygon fill="#F2F4F8" points="0 57.872 0 0.125 5.5 0.125 5.5 57.872"></polygon>
                            <path d="M1.375,57.875 C0.616,57.875 0,57.259 0,56.5 L0,40 C0,39.241 0.616,38.625 1.375,38.625 L4.125,38.625 C4.884,38.625 5.5,39.241 5.5,40 L5.5,56.5 C5.5,57.259 4.884,57.875 4.125,57.875 L1.375,57.875 Z" fill="#1454E4"></path>
                        </g>
                        <g transform="translate(11.000000, 0.000000)" id="Shape">
                            <polygon fill="#F2F4F8" points="0 57.872 0 0.125 5.5 0.125 5.5 57.872"></polygon>
                            <path d="M1.375,57.875 C0.616,57.875 0,57.259 0,56.5 L0,16.625 C0,15.866 0.616,15.25 1.375,15.25 L4.125,15.25 C4.884,15.25 5.5,15.866 5.5,16.625 L5.5,56.5 C5.5,57.259 4.884,57.875 4.125,57.875 L1.375,57.875 Z" fill="#1454E4"></path>
                        </g>
                    </g>
                </g>
                <rect id="Rectangle-path" stroke="#DDE2EC" x="401" y="152" width="107" height="116" rx="4"></rect>
            </g>
            <rect id="Rectangle-path" stroke="#E4E9F0" x="0.5" y="0.5" width="540" height="299" rx="7.5"></rect>
        </g>
    </g>
</svg>